<svg width="512" height="512" viewBox="0 0 512 512" fill="none" xmlns="http://www.w3.org/2000/svg">
<path opacity="0.35" d="M166.167 475.091C157.279 475.091 148.923 471.63 142.636 465.343L101.281 423.988C94.9888 417.701 91.5328 409.35 91.5328 400.457C91.5328 393.939 93.3965 387.698 96.873 382.358C89.7715 371.396 89.7715 357.137 96.8781 346.18C89.7715 335.218 89.7715 320.959 96.873 309.997C93.4938 304.795 91.6352 298.733 91.5379 292.394L91.4611 286.993C84.8102 282.42 81.2467 274.08 75.5021 268.325C50.6189 243.442 34.24 213.454 34.24 178.172C34.24 142.89 47.9514 109.743 72.8448 84.8499C97.7382 59.9514 130.88 46.24 166.167 46.24C201.454 46.24 225.37 60.7398 250.268 85.6384C265.039 100.41 262.336 117.905 268.731 137.765H422.167C440.517 137.765 455.447 152.695 455.447 171.045V252.965C455.447 259.56 453.522 265.709 450.204 270.885C453.522 276.056 455.447 282.205 455.447 288.8V370.72C455.447 389.07 440.517 404 422.167 404H240.822C240.028 411.572 236.68 418.587 231.212 424.035L189.637 465.399C183.375 471.645 175.035 475.091 166.167 475.091Z" fill="black"/>
<path d="M155.927 464.851C147.039 464.851 138.683 461.39 132.396 455.103L91.0413 413.748C84.7488 407.461 81.2928 399.11 81.2928 390.217C81.2928 383.699 83.1565 377.458 86.633 372.118C79.5315 361.156 79.5315 346.897 86.6381 335.94C79.5315 324.978 79.5315 310.719 86.633 299.757C83.2538 294.555 81.3952 288.493 81.2979 282.154L81.2211 276.753C74.5702 272.18 68.3392 266.999 62.5946 261.249C37.7114 236.366 24 203.219 24 167.932C24 132.645 37.7114 99.5034 62.6048 74.6099C87.4982 49.7114 120.64 36 155.927 36C191.214 36 224.351 49.7114 249.249 74.6099C264.02 89.3811 275.085 107.665 281.48 127.525H411.927C430.277 127.525 445.207 142.455 445.207 160.805V242.725C445.207 249.32 443.282 255.469 439.964 260.645C443.282 265.816 445.207 271.965 445.207 278.56V360.48C445.207 378.83 430.277 393.76 411.927 393.76H230.582C229.788 401.332 226.44 408.347 220.972 413.795L179.397 455.159C173.135 461.405 164.795 464.851 155.927 464.851Z" fill="#F2F2F2"/>
<path d="M411.927 160.8H202.007V242.72H411.927V160.8Z" fill="#F06292"/>
<path d="M411.927 278.56H181.517V360.48H411.927V278.56Z" fill="#F06292"/>
<path d="M189.898 392.234L155.779 431.571L122.319 391.907V250.4H189.898V392.234Z" fill="#64B5F6"/>
<path d="M248 168.5C248 205.251 226.804 236.995 196.091 251.916C194.546 252.668 193.838 257.88 192.246 258.545C190.224 259.389 187.308 255.655 185.219 256.35C176.189 259.368 166.533 261 156.503 261C105.97 261 65 219.584 65 168.5C65 117.416 105.964 76 156.503 76C207.041 76 248 117.411 248 168.5Z" fill="#64B5F6"/>
<path d="M137.833 410.892V259.37C129.206 257.67 117.462 251.657 109.5 247.5L119.739 284.243L130.076 299.752L114.568 315.26L132.662 333.354L111.982 354.034L130.076 372.128L114.568 387.636L137.833 410.892Z" fill="#2D99F0"/>
<path d="M161.411 260.957C157.76 261.172 154.099 261.172 150.444 260.957V431.566H161.411V260.957Z" fill="#2D99F0"/>
<path d="M155.927 439.251C153.961 439.251 151.995 438.504 150.495 437.004L109.14 395.649C106.14 392.649 106.14 387.79 109.14 384.79L121.802 372.123L109.14 359.461C106.14 356.461 106.14 351.602 109.14 348.602L121.802 335.935L109.14 323.268C106.14 320.268 106.14 315.409 109.14 312.408L121.802 299.747L109.14 287.08C107.727 285.667 106.918 283.757 106.893 281.755L106.627 262.212C97.0982 257.225 88.3891 250.83 80.7091 243.14C39.232 201.663 39.232 134.176 80.7091 92.6989C122.191 51.2166 189.668 51.2166 231.15 92.6989C247.483 109.037 257.999 130.275 261.189 153.115H411.927C416.166 153.115 419.607 156.556 419.607 160.795V242.715C419.607 246.954 416.166 250.395 411.927 250.395H223.04C217.464 254.952 211.515 258.894 205.279 262.176L205.258 270.88H411.927C416.166 270.88 419.607 274.321 419.607 278.56V360.48C419.607 364.719 416.166 368.16 411.927 368.16H205.222L205.166 390.237C205.161 392.27 204.347 394.221 202.903 395.665L161.344 437.019C159.849 438.504 157.888 439.251 155.927 439.251ZM125.432 390.217L155.942 420.722L189.816 387.017L189.883 360.46C189.893 356.225 193.329 352.8 197.563 352.8H404.247V286.24H197.558C195.52 286.24 193.564 285.431 192.12 283.987C190.682 282.543 189.878 280.582 189.878 278.545L189.934 257.394C189.944 254.414 191.675 251.711 194.373 250.451C201.797 246.995 208.817 242.444 215.232 236.909C216.625 235.7 218.406 235.04 220.244 235.04H404.247V168.48H254.282C250.253 168.48 246.915 165.372 246.623 161.348C245.051 139.501 235.697 118.985 220.285 103.564C184.788 68.0768 127.05 68.0768 91.5635 103.564C56.0768 139.055 56.0768 196.794 91.5635 232.285C99.136 239.858 107.86 245.971 117.481 250.446C120.154 251.69 121.879 254.358 121.92 257.307L122.207 278.432L138.094 294.324C141.094 297.325 141.094 302.184 138.094 305.184L125.432 317.846L138.094 330.513C141.094 333.513 141.094 338.372 138.094 341.372L125.432 354.039L138.094 366.701C141.094 369.701 141.094 374.56 138.094 377.56L125.432 390.217Z" fill="#616161"/>
<path d="M155.927 149.572C170.06 149.572 181.517 138.115 181.517 123.982C181.517 109.849 170.06 98.3923 155.927 98.3923C141.794 98.3923 130.337 109.849 130.337 123.982C130.337 138.115 141.794 149.572 155.927 149.572Z" fill="#F2F2F2"/>
<path d="M384.345 221.336C396.059 215.258 402.228 203.918 398.124 196.009C394.02 188.099 381.197 186.614 369.483 192.692C357.769 198.77 351.6 210.109 355.704 218.019C359.808 225.928 372.631 227.413 384.345 221.336Z" fill="#F2F2F2"/>
<path opacity="0.35" d="M462.296 348.123C436.418 363.064 403.209 354.165 388.268 328.287L378.833 311.944C367.806 292.845 369.617 268.928 382.833 251.77L365.531 222.539C362.678 217.598 364.377 211.256 369.318 208.404L387.147 198.11C392.088 195.258 398.429 196.957 401.282 201.898L418.584 231.129C440.053 228.264 461.67 238.654 472.697 257.752L482.132 274.095C497.073 299.973 488.175 333.182 462.296 348.123Z" fill="black"/>
<path d="M456.208 343.043C430.33 357.984 397.121 349.085 382.18 323.207L372.745 306.864C361.718 287.765 363.529 263.848 376.745 246.69L359.502 216.825C356.65 211.883 358.349 205.542 363.29 202.69L381.118 192.396C386.059 189.543 392.401 191.243 395.253 196.184L412.496 226.049C433.965 223.184 455.582 233.574 466.609 252.672L476.044 269.015C490.985 294.893 482.087 328.102 456.208 343.043Z" fill="#F2F2F2"/>
<path d="M451.035 334.081C472.005 321.974 479.19 295.159 467.083 274.188L457.648 257.846C445.54 236.875 418.725 229.69 397.754 241.798C376.784 253.905 369.599 280.72 381.706 301.691L391.142 318.033C403.249 339.004 430.064 346.189 451.035 334.081ZM398.261 291.827C391.475 280.073 395.502 265.042 407.257 258.256C419.011 251.469 434.042 255.497 440.828 267.251L450.429 283.881C457.216 295.635 453.187 310.664 441.433 317.451C429.679 324.237 414.648 320.211 407.862 308.457L398.261 291.827Z" fill="#2D99F0"/>
<path d="M370.671 212.084L385.393 203.584L421.579 266.259C425.066 272.299 424.597 279.099 420.532 281.446C416.467 283.793 410.343 280.799 406.857 274.759L370.671 212.084Z" fill="#64B5F6"/>
<path d="M452.229 336.149C430.151 348.896 401.82 341.305 389.074 319.227L379.638 302.885C369.233 284.862 372.088 262.404 386.464 247.605L366.1 212.332C365.44 211.191 365.832 209.729 366.974 209.07L384.802 198.777C385.944 198.118 387.405 198.509 388.064 199.651L408.43 234.925C428.434 229.875 449.31 238.629 459.716 256.653L469.152 272.996C481.897 295.072 474.306 323.403 452.229 336.149ZM371.429 212.012L391.522 246.813C392.073 247.769 391.899 248.978 391.098 249.738C377.172 262.969 374.159 283.843 383.774 300.497L393.209 316.839C404.639 336.635 430.045 343.443 449.841 332.013C469.637 320.584 476.444 295.178 465.015 275.382L455.58 259.04C445.964 242.386 426.383 234.558 407.959 240.003C406.9 240.317 405.766 239.863 405.215 238.908L385.122 204.107L371.429 212.012ZM442.628 319.52C429.751 326.954 413.228 322.527 405.794 309.651L396.193 293.021C390.965 283.965 391.489 272.574 397.532 264.005C398.005 263.336 398.778 262.956 399.592 262.995C400.407 263.03 401.145 263.481 401.553 264.187L408.325 275.918C410.505 279.693 415.35 280.991 419.124 278.811C422.899 276.632 424.197 271.787 422.018 268.012L415.245 256.281C414.838 255.576 414.819 254.712 415.193 253.988C415.567 253.263 416.283 252.784 417.098 252.708C427.541 251.761 437.668 257.001 442.896 266.057L452.497 282.687C459.931 295.563 455.504 312.086 442.628 319.52ZM399.473 270.137C396.441 276.63 396.685 284.322 400.329 290.634L409.93 307.263C416.048 317.859 429.643 321.502 440.24 315.384C450.836 309.266 454.479 295.671 448.361 285.075L438.76 268.445C435.116 262.134 428.579 258.076 421.438 257.456L426.153 265.623C429.65 271.679 427.568 279.449 421.512 282.946C415.455 286.443 407.685 284.361 404.189 278.304L399.473 270.137Z" fill="#616161"/>
</svg>
