<svg width="800" height="400" viewBox="0 0 800 400" fill="none" xmlns="http://www.w3.org/2000/svg">
<g clip-path="url(#clip0_2_2)">
<path opacity="0.35" d="M773.262 201.077L774 129.737C774 108.783 760.358 93.5045 733.293 93.5045H243.885C238.302 76.1651 233.443 67.2337 220.547 54.3375C198.809 32.5995 177.929 19.9402 147.121 19.9402C116.313 19.9402 87.3782 31.9111 65.6446 53.6491C43.9111 75.3827 31.9402 104.322 31.9402 135.125C31.9402 165.929 46.24 192.11 67.9646 213.835C72.98 218.859 76.0912 226.141 81.8979 230.133L81.9649 234.849C82.0498 240.383 83.6725 245.675 86.6227 250.217C80.4227 259.787 80.4227 272.236 86.6272 281.807C80.4227 291.373 80.4227 303.822 86.6227 313.392C83.5876 318.055 81.9604 323.504 81.9604 329.194C81.9604 336.959 84.9778 344.249 90.4715 349.739L126.576 385.844C132.066 391.333 139.361 394.355 147.121 394.355C154.863 394.355 162.145 391.346 167.612 385.893L203.909 349.779C208.683 345.023 211.606 338.899 212.299 332.287H370.625C386.646 332.287 399.681 319.253 399.681 303.232V233.752H742.333C765.47 233.752 773.262 217.098 773.262 201.077Z" fill="black"/>
<path d="M138.181 385.414C130.421 385.414 123.125 382.393 117.636 376.903L81.5313 340.799C76.0376 335.309 73.0203 328.019 73.0203 320.254C73.0203 314.564 74.6474 309.115 77.6826 304.452C71.4826 294.882 71.4826 282.433 77.687 272.867C71.4826 263.296 71.4826 250.847 77.6826 241.277C74.7323 236.735 73.1097 231.442 73.0247 225.908L72.9577 221.192C67.151 217.201 61.7109 212.677 56.6955 207.657C34.9709 185.932 23 156.993 23 126.185C23 95.3774 34.9709 66.4425 56.7045 44.7089C78.438 22.9709 107.373 11 138.181 11C168.989 11 197.919 22.9709 219.657 44.7089C232.553 57.6051 240.485 67.4344 246.068 84.7739H725.38C741.401 84.7739 757.055 103.942 757.055 119.963C757.055 134.437 757.055 194.343 757.055 194.343C755.847 213.183 751.047 219.409 736.293 222.77H390.741V294.292C390.741 310.313 377.706 323.347 361.685 323.347H203.359C202.666 329.959 199.743 336.083 194.969 340.839L158.672 376.953C153.205 382.406 145.923 385.414 138.181 385.414Z" fill="#F2F2F2"/>
<path d="M361.685 222.77H160.522V294.292H361.685V222.77Z" fill="#F06292"/>
<path d="M167.84 322.015L138.051 356.359L108.839 321.729V198.185H167.84V322.015Z" fill="#64B5F6"/>
<path d="M218.566 126.681C218.566 158.767 200.061 186.482 173.247 199.508C171.898 200.165 171.279 204.715 169.89 205.296C168.124 206.033 165.578 202.773 163.754 203.38C155.871 206.015 147.441 207.439 138.683 207.439C94.5646 207.439 58.7956 171.28 58.7956 126.681C58.7956 82.0816 94.5602 45.9226 138.683 45.9226C182.806 45.9226 218.566 82.0772 218.566 126.681Z" fill="#64B5F6"/>
<path d="M122.383 338.304V206.016C114.851 204.532 104.598 199.283 97.647 195.653L106.586 227.732L115.611 241.272L102.071 254.812L117.869 270.609L99.814 288.664L115.611 304.461L102.071 318.001L122.383 338.304Z" fill="#2D99F0"/>
<path d="M142.968 207.402C139.781 207.59 136.585 207.59 133.393 207.402V356.354H142.968V207.402Z" fill="#2D99F0"/>
<path d="M138.181 363.064C136.464 363.064 134.748 362.411 133.438 361.102L97.3331 324.997C94.7136 322.377 94.7136 318.135 97.3331 315.516L108.388 304.457L97.3331 293.402C94.7136 290.783 94.7136 286.541 97.3331 283.921L108.388 272.862L97.3331 261.803C94.7136 259.184 94.7136 254.942 97.3331 252.322L108.388 241.268L97.3331 230.209C96.0993 228.975 95.3931 227.308 95.3707 225.56L95.1383 208.497C86.8194 204.144 79.2158 198.56 72.5107 191.846C36.2985 155.634 36.2985 96.7139 72.5107 60.5017C108.727 24.2851 167.639 24.2851 203.855 60.5017C218.115 74.7658 227.296 93.3077 230.081 113.249C236.286 157.675 218.618 188.81 181.268 208.466L181.25 216.065H361.685C365.386 216.065 368.39 219.069 368.39 222.77V294.292C368.39 297.993 365.386 300.997 361.685 300.997H181.219L181.17 320.272C181.165 322.047 180.454 323.75 179.194 325.01L142.91 361.115C141.605 362.411 139.893 363.064 138.181 363.064ZM111.557 320.254L138.194 346.887L167.768 317.46L167.826 294.274C167.835 290.577 170.835 287.587 174.531 287.587H354.98V229.476H174.527C172.748 229.476 171.04 228.769 169.78 227.509C168.524 226.248 167.822 224.536 167.822 222.757L167.871 204.291C167.88 201.689 169.391 199.329 171.747 198.23C178.228 195.212 184.357 191.238 189.958 186.406C209.572 169.388 219.378 148.211 217.364 120.437C215.992 101.363 207.825 83.4512 194.37 69.9873C163.379 39.0051 112.969 39.0051 81.9873 69.9873C51.0051 100.974 51.0051 151.383 81.9873 182.37C88.5985 188.981 96.2156 194.318 104.615 198.225C106.948 199.311 108.455 201.64 108.49 204.215L108.741 222.659L122.611 236.534C125.231 239.153 125.231 243.395 122.611 246.015L111.557 257.069L122.611 268.128C125.231 270.748 125.231 274.99 122.611 277.609L111.557 288.668L122.611 299.723C125.231 302.342 125.231 306.585 122.611 309.204L111.557 320.254Z" fill="#616161"/>
<path d="M138.181 110.155C150.52 110.155 160.522 100.153 160.522 87.814C160.522 75.4751 150.52 65.4725 138.181 65.4725C125.842 65.4725 115.839 75.4751 115.839 87.814C115.839 100.153 125.842 110.155 138.181 110.155Z" fill="#F2F2F2"/>
<path d="M335.078 278.289C345.305 272.983 350.691 263.083 347.108 256.177C343.525 249.272 332.33 247.975 322.103 253.281C311.875 258.588 306.489 268.488 310.072 275.393C313.656 282.299 324.851 283.596 335.078 278.289Z" fill="#F2F2F2"/>
<path opacity="0.35" d="M403.135 390.385C380.542 403.429 351.549 395.661 338.504 373.067L330.266 358.799C320.639 342.124 322.22 321.243 333.759 306.263L318.653 280.742C316.162 276.428 317.645 270.892 321.959 268.401L337.525 259.415C341.839 256.924 347.375 258.407 349.865 262.721L364.972 288.242C383.715 285.74 402.589 294.811 412.215 311.486L420.453 325.754C433.498 348.347 425.729 377.34 403.135 390.385Z" fill="black"/>
<path d="M397.82 385.95C375.226 398.994 346.233 391.225 333.189 368.632L324.951 354.364C315.324 337.688 316.905 316.808 328.444 301.828L313.389 275.753C310.899 271.439 312.382 265.903 316.696 263.412L332.262 254.426C336.576 251.935 342.112 253.419 344.602 257.732L359.657 283.807C378.4 281.305 397.273 290.376 406.9 307.05L415.138 321.318C428.182 343.912 420.414 372.905 397.82 385.95Z" fill="#F2F2F2"/>
<path d="M393.303 378.126C411.612 367.555 417.885 344.144 407.314 325.835L399.077 311.567C388.506 293.259 365.095 286.986 346.786 297.556C328.477 308.127 322.204 331.538 332.775 349.847L341.012 364.115C351.583 382.423 374.994 388.697 393.303 378.126ZM347.228 341.236C341.303 330.973 344.82 317.85 355.082 311.925C365.344 306 378.467 309.517 384.392 319.779L392.774 334.297C398.699 344.56 395.182 357.681 384.92 363.606C374.658 369.531 361.536 366.016 355.611 355.754L347.228 341.236Z" fill="#2D99F0"/>
<path d="M323.14 271.614L335.994 264.193L367.586 318.913C370.631 324.186 370.221 330.123 366.672 332.172C363.124 334.221 357.777 331.607 354.733 326.334L323.14 271.614Z" fill="#64B5F6"/>
<path d="M394.345 379.931C375.07 391.06 350.336 384.432 339.207 365.157L330.969 350.889C321.885 335.154 324.378 315.547 336.929 302.626L319.149 271.831C318.574 270.834 318.916 269.559 319.912 268.983L335.478 259.996C336.475 259.421 337.75 259.763 338.326 260.759L356.106 291.556C373.572 287.147 391.797 294.79 400.883 310.526L409.12 324.794C420.248 344.068 413.621 368.803 394.345 379.931ZM323.803 271.552L341.345 301.935C341.826 302.769 341.673 303.825 340.975 304.489C328.816 316.041 326.186 334.264 334.58 348.804L342.818 363.072C352.796 380.356 374.977 386.299 392.261 376.32C409.544 366.342 415.487 344.161 405.509 326.878L397.271 312.61C388.876 298.07 371.78 291.235 355.695 295.99C354.77 296.264 353.781 295.867 353.299 295.033L335.757 264.65L323.803 271.552ZM385.963 365.413C374.721 371.904 360.296 368.038 353.805 356.796L345.423 342.278C340.858 334.371 341.316 324.426 346.592 316.944C347.004 316.361 347.679 316.029 348.391 316.063C349.102 316.094 349.746 316.487 350.102 317.104L356.015 327.345C357.918 330.641 362.148 331.774 365.443 329.872C368.739 327.969 369.872 323.739 367.97 320.443L362.057 310.202C361.701 309.585 361.684 308.831 362.011 308.199C362.337 307.566 362.962 307.148 363.674 307.082C372.792 306.255 381.633 310.83 386.198 318.737L394.58 333.255C401.071 344.497 397.205 358.922 385.963 365.413ZM348.287 322.299C345.639 327.968 345.853 334.683 349.034 340.193L357.416 354.712C362.757 363.963 374.627 367.143 383.878 361.802C393.13 356.461 396.31 344.591 390.969 335.34L382.587 320.821C379.405 315.311 373.698 311.768 367.463 311.227L371.58 318.357C374.633 323.645 372.815 330.429 367.527 333.481C362.24 336.534 355.456 334.717 352.403 329.429L348.287 322.299Z" fill="#616161"/>
<path d="M282.969 196.685C278.056 196.685 273.879 196.439 270.44 195.948C267.045 195.457 264.276 194.519 262.132 193.134C260.033 191.794 258.447 189.851 257.375 187.305C256.303 184.759 255.655 181.454 255.432 177.389C255.343 175.334 255.276 172.922 255.231 170.153C255.231 167.384 255.253 164.458 255.298 161.376C255.343 158.294 255.41 155.212 255.499 152.13C255.633 149.048 255.767 146.167 255.901 143.487C256.035 140.762 256.169 138.44 256.303 136.519C256.705 130.534 258.112 125.799 260.524 122.315C262.981 118.786 266.532 116.285 271.177 114.811C275.822 113.292 281.674 112.533 288.731 112.533C292.751 112.533 296.704 112.935 300.59 113.739C304.521 114.498 308.072 115.704 311.243 117.357C314.414 119.01 316.938 121.176 318.814 123.856C320.735 126.536 321.695 129.797 321.695 133.638C321.695 136.631 321.092 139.177 319.886 141.276C318.725 143.331 317.295 145.006 315.598 146.301C313.945 147.596 312.315 148.557 310.707 149.182C309.099 149.807 307.737 150.299 306.62 150.656C305.503 151.013 304.945 151.348 304.945 151.661C304.945 151.929 305.749 152.197 307.357 152.465C308.965 152.733 310.953 153.224 313.32 153.939C316.536 154.877 319.328 156.128 321.695 157.691C324.107 159.254 325.961 161.197 327.256 163.52C328.551 165.843 329.199 168.59 329.199 171.761C329.199 174.888 328.35 177.88 326.653 180.739C325 183.553 323.035 185.876 320.757 187.707C318.97 189.136 316.67 190.409 313.856 191.526C311.087 192.643 307.982 193.581 304.543 194.34C301.148 195.144 297.597 195.725 293.89 196.082C290.227 196.484 286.587 196.685 282.969 196.685ZM282.5 184.893C287.145 184.893 291.389 184.603 295.23 184.022C299.071 183.397 302.377 182.459 305.146 181.208C307.96 179.957 310.126 178.394 311.645 176.518C313.208 174.642 313.99 172.453 313.99 169.952C313.99 167.719 313.119 165.887 311.377 164.458C309.68 163.029 307.424 161.89 304.61 161.041C301.796 160.192 298.714 159.567 295.364 159.165C292.014 158.763 288.664 158.517 285.314 158.428C282.009 158.294 279.038 158.227 276.403 158.227C275.599 158.227 274.862 158.406 274.192 158.763C273.567 159.12 273.008 159.746 272.517 160.639C272.07 161.532 271.713 162.783 271.445 164.391C271.222 165.999 271.11 168.054 271.11 170.555C271.11 173.324 271.222 175.625 271.445 177.456C271.668 179.287 272.16 180.761 272.919 181.878C273.678 182.95 274.817 183.732 276.336 184.223C277.855 184.67 279.909 184.893 282.5 184.893ZM273.79 147.708C277.274 147.708 280.401 147.663 283.17 147.574C285.939 147.44 288.485 147.217 290.808 146.904C293.131 146.591 295.319 146.145 297.374 145.564C300.635 144.671 303.203 143.353 305.079 141.611C307 139.824 307.96 137.211 307.96 133.772C307.96 131.807 307.357 130.087 306.151 128.613C304.945 127.094 303.337 125.844 301.327 124.861C299.362 123.834 297.173 123.074 294.761 122.583C292.349 122.092 289.937 121.846 287.525 121.846C285.292 121.846 283.17 122.069 281.16 122.516C279.15 122.963 277.408 123.655 275.934 124.593C274.505 125.486 273.477 126.581 272.852 127.876C272.539 128.546 272.249 129.506 271.981 130.757C271.758 131.963 271.534 133.281 271.311 134.71C271.132 136.139 270.998 137.569 270.909 138.998C270.864 140.383 270.842 141.611 270.842 142.683C270.842 144.291 271.043 145.542 271.445 146.435C271.892 147.284 272.673 147.708 273.79 147.708ZM365.628 198.762C361.697 198.762 357.945 198.427 354.372 197.757C350.799 197.132 347.583 196.261 344.724 195.144C341.865 194.027 339.61 192.754 337.957 191.325C336.304 189.851 335.478 188.332 335.478 186.769C335.478 185.563 335.679 184.558 336.081 183.754C336.483 182.95 336.997 182.347 337.622 181.945C338.247 181.498 338.895 181.186 339.565 181.007C340.28 180.784 340.927 180.672 341.508 180.672C342.982 180.672 344.925 181.141 347.337 182.079C349.749 183.017 352.541 183.955 355.712 184.893C358.883 185.831 362.367 186.3 366.164 186.3C369.157 186.3 371.904 186.032 374.405 185.496C376.906 184.96 379.095 184.178 380.971 183.151C382.847 182.079 384.299 180.806 385.326 179.332C386.353 177.813 386.867 176.116 386.867 174.24C386.867 171.56 386.219 169.394 384.924 167.741C383.673 166.088 381.931 164.793 379.698 163.855C377.509 162.917 375.008 162.158 372.194 161.577C369.648 161.041 367.437 160.371 365.561 159.567C363.685 158.763 362.233 157.758 361.206 156.552C360.223 155.346 359.732 153.961 359.732 152.398C359.732 150.075 360.581 148.356 362.278 147.239C363.975 146.078 366.298 145.073 369.246 144.224C371.926 143.509 374.271 142.638 376.281 141.611C378.291 140.539 379.854 139.221 380.971 137.658C382.132 136.05 382.713 134.107 382.713 131.829C382.713 129.194 381.954 127.184 380.435 125.799C378.916 124.414 376.817 123.454 374.137 122.918C371.457 122.382 368.397 122.114 364.958 122.114C361.474 122.114 358.258 122.382 355.31 122.918C352.407 123.409 349.883 123.923 347.739 124.459C345.64 124.995 344.009 125.263 342.848 125.263C340.927 125.263 339.409 124.749 338.292 123.722C337.22 122.695 336.684 121.444 336.684 119.97C336.684 118.407 337.555 117 339.297 115.749C341.084 114.454 343.406 113.382 346.265 112.533C349.168 111.684 352.384 111.037 355.913 110.59C359.442 110.099 362.993 109.853 366.566 109.853C373.668 109.853 379.519 110.679 384.12 112.332C388.765 113.94 392.227 116.24 394.505 119.233C396.783 122.181 397.922 125.643 397.922 129.618C397.922 132.387 397.341 134.911 396.18 137.189C395.019 139.422 393.411 141.343 391.356 142.951C389.346 144.559 386.979 145.854 384.254 146.837C382.378 147.686 380.993 148.445 380.1 149.115C379.207 149.785 378.76 150.634 378.76 151.661C378.76 152.822 379.452 153.738 380.837 154.408C382.222 155.033 383.83 155.636 385.661 156.217C388.386 156.932 391.043 158.004 393.634 159.433C396.225 160.818 398.346 162.783 399.999 165.329C401.696 167.83 402.545 171.136 402.545 175.245C402.545 178.908 401.763 182.191 400.2 185.094C398.681 187.997 396.381 190.476 393.299 192.531C390.217 194.541 386.376 196.082 381.775 197.154C377.174 198.226 371.792 198.762 365.628 198.762ZM423.25 196.216C421.419 196.216 419.9 195.635 418.694 194.474C417.533 193.357 416.55 191.772 415.746 189.717C415.344 188.645 414.965 186.881 414.607 184.424C414.25 181.923 413.915 179.019 413.602 175.714C413.29 172.409 412.999 168.969 412.731 165.396C412.508 161.778 412.307 158.249 412.128 154.81C411.95 151.371 411.816 148.289 411.726 145.564C411.637 142.795 411.592 140.673 411.592 139.199C411.592 133.973 411.927 129.551 412.597 125.933C413.312 122.27 414.585 119.479 416.416 117.558C418.248 115.593 420.905 114.61 424.389 114.61C426.801 114.61 429.191 115.593 431.558 117.558C433.926 119.479 436.695 122.538 439.866 126.737C443.038 130.936 446.968 136.407 451.658 143.152C457.912 152.353 462.937 159.187 466.733 163.654C470.53 168.076 473.255 170.287 474.907 170.287C475.711 170.287 476.359 170.086 476.85 169.684C477.386 169.282 477.788 168.478 478.056 167.272C478.369 166.021 478.57 164.145 478.659 161.644C478.749 160.572 478.793 158.942 478.793 156.753C478.793 154.564 478.771 152.108 478.726 149.383C478.726 146.614 478.704 143.777 478.659 140.874C478.615 137.971 478.592 135.224 478.592 132.633C478.592 130.042 478.592 127.831 478.592 126C478.637 124.169 478.704 122.94 478.793 122.315C479.329 119.635 480.2 117.781 481.406 116.754C482.612 115.727 484.287 115.213 486.431 115.213C488.039 115.213 489.379 115.503 490.451 116.084C491.568 116.62 492.461 117.446 493.131 118.563C493.846 119.635 494.36 121.042 494.672 122.784C495.03 124.481 495.253 126.491 495.342 128.814C495.387 130.154 495.432 132.097 495.476 134.643C495.521 137.189 495.566 140.092 495.61 143.353C495.655 146.569 495.655 149.919 495.61 153.403C495.61 156.887 495.566 160.282 495.476 163.587C495.432 166.848 495.342 169.818 495.208 172.498C495.074 175.178 494.873 177.322 494.605 178.93C494.069 182.369 493.243 185.25 492.126 187.573C491.054 189.851 489.603 191.571 487.771 192.732C485.985 193.849 483.684 194.407 480.87 194.407C478.324 194.407 475.533 193.134 472.495 190.588C469.458 187.997 466.175 184.446 462.646 179.935C459.162 175.379 455.433 170.242 451.457 164.525C448.911 160.862 446.544 157.49 444.355 154.408C442.167 151.281 440.224 148.579 438.526 146.301C436.874 143.978 435.467 142.192 434.305 140.941C433.144 139.646 432.273 138.998 431.692 138.998C430.665 138.998 429.95 139.601 429.548 140.807C429.146 141.968 428.945 144.336 428.945 147.909C428.945 149.964 428.99 152.242 429.079 154.743C429.169 157.2 429.28 159.746 429.414 162.381C429.548 165.016 429.705 167.674 429.883 170.354C430.062 172.989 430.196 175.558 430.285 178.059C430.375 180.516 430.419 182.794 430.419 184.893C430.464 186.992 430.419 188.801 430.285 190.32C429.794 192.598 428.968 194.139 427.806 194.943C426.645 195.792 425.126 196.216 423.25 196.216ZM544.621 196.551C539.439 196.551 534.437 195.97 529.613 194.809C524.833 193.648 520.545 191.794 516.749 189.248C512.997 186.702 510.026 183.397 507.838 179.332C505.649 175.223 504.555 170.22 504.555 164.324C504.555 157.847 505.604 152.197 507.704 147.373C509.848 142.504 512.796 138.462 516.548 135.246C520.3 131.985 524.632 129.551 529.546 127.943C534.504 126.29 539.797 125.464 545.425 125.464C550.517 125.464 555.497 126.112 560.366 127.407C565.234 128.702 569.612 130.735 573.498 133.504C577.384 136.273 580.466 139.869 582.744 144.291C585.066 148.668 586.228 153.961 586.228 160.17C586.228 164.86 585.267 169.371 583.347 173.704C581.471 178.037 578.724 181.923 575.106 185.362C571.532 188.757 567.177 191.459 562.041 193.469C556.949 195.524 551.142 196.551 544.621 196.551ZM544.018 181.744C548.574 181.744 552.437 181.052 555.609 179.667C558.78 178.238 561.348 176.384 563.314 174.106C565.324 171.783 566.775 169.26 567.669 166.535C568.607 163.81 569.076 161.108 569.076 158.428C569.076 154.676 568.339 151.505 566.865 148.914C565.435 146.279 563.515 144.157 561.103 142.549C558.735 140.941 556.078 139.78 553.13 139.065C550.182 138.306 547.167 137.926 544.085 137.926C540.065 137.926 536.268 138.797 532.695 140.539C529.121 142.236 526.218 144.827 523.985 148.311C521.796 151.75 520.702 156.105 520.702 161.376C520.702 165.664 521.573 169.349 523.315 172.431C525.101 175.468 527.737 177.791 531.221 179.399C534.705 180.962 538.97 181.744 544.018 181.744ZM633.921 194.407C631.509 194.407 629.075 194.05 626.618 193.335C624.206 192.62 622.129 191.28 620.387 189.315C618.69 187.305 617.685 184.469 617.372 180.806C617.238 179.511 617.104 178.037 616.97 176.384C616.836 174.731 616.702 172.967 616.568 171.091C616.479 169.17 616.39 167.205 616.3 165.195C616.256 163.14 616.189 161.063 616.099 158.964C616.055 156.82 616.032 154.698 616.032 152.599C615.988 150.589 615.608 149.271 614.893 148.646C614.223 148.021 613.174 147.641 611.744 147.507C610.896 147.418 609.801 147.351 608.461 147.306C607.166 147.261 605.826 147.194 604.441 147.105C603.057 147.016 601.828 146.926 600.756 146.837C599.014 146.658 597.697 146.1 596.803 145.162C595.91 144.179 595.463 142.795 595.463 141.008C595.463 139.802 595.709 138.886 596.2 138.261C596.736 137.591 597.473 137.077 598.411 136.72C599.394 136.363 600.488 136.117 601.694 135.983C604.062 135.76 606.005 135.559 607.523 135.38C609.087 135.201 610.538 135.045 611.878 134.911C613.308 134.732 614.313 134.353 614.893 133.772C615.519 133.191 615.921 132.119 616.099 130.556C616.189 129.618 616.256 128.524 616.3 127.273C616.39 126.022 616.479 124.794 616.568 123.588C616.702 122.337 616.836 121.265 616.97 120.372C617.462 118.183 618.154 116.575 619.047 115.548C619.941 114.521 621.37 114.007 623.335 114.007C624.943 114.007 626.194 114.275 627.087 114.811C628.025 115.302 628.718 116.084 629.164 117.156C629.611 118.228 629.968 119.613 630.236 121.31C630.326 122.695 630.393 123.923 630.437 124.995C630.527 126.067 630.594 127.05 630.638 127.943C630.683 128.792 630.728 129.573 630.772 130.288C630.862 131.003 630.951 131.717 631.04 132.432C631.174 133.727 631.599 134.665 632.313 135.246C633.028 135.782 634.078 136.117 635.462 136.251C636.668 136.385 637.986 136.541 639.415 136.72C640.889 136.854 642.296 136.988 643.636 137.122C645.021 137.211 646.16 137.345 647.053 137.524C648.885 137.747 650.448 138.239 651.743 138.998C653.039 139.757 653.686 141.008 653.686 142.75C653.686 144.358 653.173 145.631 652.145 146.569C651.118 147.462 649.711 147.976 647.924 148.11C645.2 148.155 642.676 148.177 640.353 148.177C638.031 148.132 636.222 148.132 634.926 148.177C633.899 148.266 633.095 148.579 632.514 149.115C631.978 149.606 631.666 150.902 631.576 153.001C631.576 154.698 631.576 156.44 631.576 158.227C631.621 160.014 631.666 161.8 631.71 163.587C631.755 165.374 631.822 167.138 631.911 168.88C632.001 170.577 632.112 172.185 632.246 173.704C632.38 175.223 632.537 176.607 632.715 177.858C633.073 180.493 633.72 182.258 634.658 183.151C635.641 184.044 636.936 184.491 638.544 184.491C640.465 184.491 641.961 184.111 643.033 183.352C644.15 182.548 645.088 181.744 645.847 180.94C646.651 180.136 647.545 179.734 648.527 179.734C649.644 179.734 650.448 180.047 650.939 180.672C651.475 181.253 651.743 182.124 651.743 183.285C651.743 184.759 651.207 186.166 650.135 187.506C649.108 188.801 647.723 189.985 645.981 191.057C644.284 192.084 642.386 192.888 640.286 193.469C638.187 194.094 636.065 194.407 633.921 194.407ZM697.296 197.623C689.792 197.623 683.293 196.484 677.799 194.206C672.305 191.928 668.062 188.422 665.069 183.687C662.076 178.908 660.58 172.833 660.58 165.463C660.58 159.344 661.585 154.006 663.595 149.45C665.65 144.849 668.464 141.008 672.037 137.926C675.61 134.844 679.742 132.544 684.432 131.025C689.122 129.462 694.125 128.68 699.44 128.68C703.058 128.68 706.475 129.06 709.691 129.819C712.952 130.578 715.833 131.762 718.334 133.37C720.88 134.933 722.868 136.943 724.297 139.4C725.726 141.857 726.441 144.782 726.441 148.177C726.441 151.795 725.682 154.743 724.163 157.021C722.644 159.254 720.567 161.019 717.932 162.314C715.297 163.565 712.304 164.503 708.954 165.128C705.649 165.709 702.187 166.155 698.569 166.468C696.738 166.781 694.571 167.049 692.07 167.272C689.569 167.451 687.134 167.607 684.767 167.741C682.444 167.83 680.635 167.875 679.34 167.875C678 167.875 677.084 168.054 676.593 168.411C676.102 168.768 675.856 169.416 675.856 170.354C675.856 171.471 676.169 172.788 676.794 174.307C677.419 175.781 678.313 177.233 679.474 178.662C681.618 181.297 684.097 183.062 686.911 183.955C689.77 184.804 693.276 185.228 697.43 185.228C701.048 185.228 704.353 184.804 707.346 183.955C710.339 183.062 713.019 182.191 715.386 181.342C717.798 180.449 719.964 180.002 721.885 180.002C723.627 180.002 724.989 180.337 725.972 181.007C726.999 181.632 727.513 182.883 727.513 184.759C727.513 186.456 726.731 188.087 725.168 189.65C723.649 191.213 721.528 192.576 718.803 193.737C716.078 194.943 712.885 195.881 709.222 196.551C705.559 197.266 701.584 197.623 697.296 197.623ZM692.003 160.371C695.621 160.371 698.993 160.036 702.12 159.366C705.247 158.651 707.77 157.468 709.691 155.815C711.656 154.118 712.639 151.795 712.639 148.847C712.639 145.363 711.366 142.75 708.82 141.008C706.274 139.221 702.701 138.328 698.1 138.328C695.375 138.328 692.718 138.819 690.127 139.802C687.536 140.74 685.236 142.058 683.226 143.755C681.216 145.452 679.608 147.373 678.402 149.517C677.196 151.661 676.593 153.961 676.593 156.418C676.593 157.669 677.084 158.584 678.067 159.165C679.094 159.701 680.725 160.036 682.958 160.17C685.236 160.304 688.251 160.371 692.003 160.371Z" fill="#616161"/>
</g>
<defs>
<clipPath id="clip0_2_2">
<rect width="800" height="400" fill="white"/>
</clipPath>
</defs>
</svg>
