<?xml version="1.0" standalone="no"?>
<!DOCTYPE svg PUBLIC "-//W3C//DTD SVG 20010904//EN"
 "http://www.w3.org/TR/2001/REC-SVG-20010904/DTD/svg10.dtd">
<svg version="1.0" xmlns="http://www.w3.org/2000/svg"
 width="700.000000pt" height="700.000000pt" viewBox="0 0 700.000000 700.000000"
 preserveAspectRatio="xMidYMid meet">
<metadata>
Created by potrace 1.14, written by Peter Selinger 2001-2017
</metadata>
<g transform="translate(0.000000,700.000000) scale(0.100000,-0.100000)"
fill="#000000" stroke="none">
<path d="M2018 6505 c-2 -1 -37 -6 -79 -9 -42 -3 -83 -8 -90 -10 -8 -3 -31 -7
-51 -10 -162 -24 -424 -122 -591 -222 -162 -97 -351 -262 -475 -412 -207 -252
-347 -580 -391 -922 -10 -74 -7 -402 3 -470 42 -271 141 -526 289 -746 114
-171 271 -339 411 -439 64 -46 65 -47 67 -115 3 -77 18 -141 49 -203 l22 -44
-20 -39 c-63 -124 -64 -281 -2 -410 22 -45 22 -47 5 -82 -67 -141 -69 -287 -4
-418 l21 -41 -20 -39 c-51 -100 -62 -240 -28 -350 9 -29 34 -78 56 -110 47
-70 696 -718 710 -709 6 3 10 1 10 -4 0 -6 7 -11 16 -11 8 0 12 -5 9 -11 -4
-6 -1 -9 6 -8 27 6 119 -25 119 -38 0 -8 -5 -11 -10 -8 -6 3 -13 -2 -17 -12
-4 -10 -11 -21 -17 -25 -7 -5 -6 -8 2 -8 8 0 16 9 19 20 3 11 9 17 14 14 5 -3
13 3 17 13 5 12 18 18 39 18 17 0 29 -3 27 -7 -3 -5 0 -8 5 -8 6 0 11 4 11 8
0 5 7 9 15 9 8 0 15 -6 15 -14 0 -7 -6 -12 -12 -10 -7 1 -13 -4 -13 -12 0 -8
6 -15 13 -17 7 -1 8 0 2 3 -5 2 -10 9 -10 14 0 6 5 7 11 4 6 -4 13 3 16 15 4
17 11 21 29 17 13 -2 24 -1 24 4 0 7 58 25 73 21 4 -1 7 2 7 6 0 13 48 33 55
22 7 -11 35 -2 35 12 0 6 -6 5 -15 -2 -19 -16 -20 -3 -1 16 13 12 16 12 26 -3
10 -16 10 -16 8 3 -4 26 80 113 102 106 8 -3 11 1 8 10 -7 18 47 72 73 74 10
1 20 -5 23 -13 3 -8 11 -11 17 -8 13 9 8 -27 -6 -38 -6 -5 -4 -7 5 -4 16 4 21
47 6 46 -5 0 -13 6 -18 15 -5 9 -13 14 -19 11 -5 -4 -9 -1 -9 5 0 16 42 8 57
-10 12 -13 14 -13 25 0 7 8 21 16 31 18 15 3 16 0 5 -17 -6 -11 -15 -18 -19
-15 -10 6 -33 -36 -25 -44 3 -3 6 0 6 7 0 7 4 9 10 6 6 -4 7 1 3 11 -4 11 -2
15 4 11 6 -4 18 4 27 18 9 13 12 26 8 29 -14 8 -43 0 -53 -15 -8 -12 -10 -12
-19 1 -5 8 -14 16 -20 16 -21 3 -21 4 -6 19 8 8 25 16 38 16 18 1 19 2 4 6
-16 4 -13 9 18 39 35 33 78 46 73 22 -1 -7 4 -13 12 -13 8 0 15 6 17 13 1 7 0
8 -3 2 -2 -5 -9 -10 -14 -10 -6 0 -7 5 -4 10 3 6 -4 14 -16 18 -18 7 -19 11
-8 17 7 5 25 9 39 9 21 1 25 6 24 29 0 17 5 27 15 27 8 0 12 3 8 6 -5 5 36 54
46 54 2 0 4 -7 4 -15 0 -8 -6 -15 -14 -15 -7 0 -13 -5 -13 -10 0 -7 6 -7 19 0
13 6 18 18 17 35 -2 16 2 25 10 25 8 0 14 7 14 16 0 14 3 14 15 4 16 -14 21
-35 6 -25 -11 6 -36 -33 -27 -43 3 -3 6 0 6 7 0 7 4 9 10 6 6 -4 7 1 3 11 -4
11 -3 15 5 10 16 -10 26 13 12 29 -9 11 -9 18 4 31 9 8 21 24 26 35 6 10 16
19 23 19 8 0 7 -4 -3 -11 -13 -9 -13 -10 0 -6 8 2 15 10 15 18 0 8 11 25 25
39 14 14 31 36 38 50 7 14 10 17 7 7 -3 -10 -1 -15 5 -12 6 3 10 19 10 36 0
31 14 39 24 13 4 -9 9 -14 13 -11 3 4 15 1 27 -5 14 -7 18 -7 11 0 -5 6 -17
12 -25 14 -27 6 -39 30 -28 58 6 14 12 39 15 55 3 17 6 31 8 33 7 8 75 9 75 1
0 -5 -11 -7 -25 -5 -23 4 -24 3 -14 -17 17 -32 23 -35 14 -8 -5 16 -4 21 4 17
6 -4 21 -1 33 7 20 11 57 14 141 8 14 -1 17 -7 13 -23 -4 -17 -2 -16 7 4 11
23 15 26 26 15 8 -6 11 -7 8 -2 -3 6 28 9 86 9 126 -2 119 -1 113 -26 -4 -17
-2 -16 7 4 11 23 15 26 26 15 8 -6 11 -7 8 -2 -3 6 28 10 84 10 68 0 92 -4 99
-15 8 -12 10 -12 10 4 0 20 0 20 14 0 13 -17 12 -20 -7 -26 l-22 -6 22 -1 c24
-1 39 14 23 24 -17 10 -11 22 10 21 12 0 25 -8 30 -16 8 -12 10 -12 10 4 0 20
0 20 14 0 13 -17 12 -20 -7 -26 l-22 -6 22 -1 c24 -1 39 14 23 24 -17 10 -11
22 10 21 12 0 25 -8 30 -16 8 -12 10 -12 10 4 0 20 0 20 14 0 13 -17 12 -20
-7 -26 l-22 -6 22 -1 c24 -1 39 14 23 24 -17 10 -11 22 10 21 12 0 25 -8 30
-16 8 -12 10 -12 10 4 0 20 0 20 14 0 13 -17 12 -20 -7 -26 l-22 -6 22 -1 c24
-1 39 14 23 24 -19 12 -10 21 20 21 17 0 30 -4 30 -8 0 -5 -10 -7 -23 -3 -19
5 -19 4 -5 -5 13 -8 23 -7 40 3 20 11 57 13 141 8 14 -1 17 -7 13 -24 -4 -16
-2 -15 7 5 11 23 15 26 26 15 8 -6 11 -7 8 -2 -3 6 28 9 86 9 126 -2 119 -1
113 -26 -4 -17 -2 -16 7 4 11 23 15 26 26 15 8 -6 11 -7 8 -2 -3 6 28 10 84
10 68 0 92 -4 99 -15 8 -12 10 -12 10 4 0 20 0 20 14 0 13 -17 12 -20 -7 -26
l-22 -6 22 -1 c24 -1 39 14 23 24 -17 10 -11 22 10 21 12 0 25 -8 30 -16 8
-12 10 -12 10 4 0 20 0 20 14 0 13 -17 12 -20 -7 -26 l-22 -6 22 -1 c24 -1 39
14 23 24 -17 10 -11 22 10 21 12 0 25 -8 30 -16 8 -12 10 -12 10 4 0 20 0 20
14 0 13 -17 12 -20 -7 -26 l-22 -6 22 -1 c24 -1 39 14 23 24 -17 10 -11 22 10
21 12 0 25 -8 30 -16 8 -12 10 -12 10 4 0 20 0 20 14 0 13 -17 12 -20 -7 -26
l-22 -6 22 -1 c24 -1 39 14 23 24 -17 10 -11 22 10 21 12 0 25 -8 30 -16 8
-12 10 -12 10 4 0 20 0 20 14 0 13 -17 12 -20 -7 -26 l-22 -6 22 -1 c24 -1 39
14 23 24 -17 10 -11 22 10 21 12 0 25 -8 30 -16 8 -12 10 -12 10 4 0 20 0 20
14 0 13 -17 12 -20 -7 -26 l-22 -6 22 -1 c24 -1 39 14 23 24 -17 10 -11 22 10
21 12 0 25 -8 30 -16 8 -12 10 -12 10 4 0 20 0 20 14 0 13 -17 12 -20 -7 -26
l-22 -6 22 -1 c24 -1 39 14 23 24 -17 10 -11 22 10 21 12 0 25 -8 30 -16 8
-12 10 -12 10 4 0 20 0 20 14 0 13 -17 12 -20 -7 -26 l-22 -6 22 -1 c24 -1 39
14 23 24 -24 15 -5 20 70 20 81 0 91 -4 66 -24 -10 -8 -16 -9 -19 -1 -3 6 -4
5 -3 -2 2 -7 9 -12 15 -11 14 4 15 -14 1 -20 -6 -3 -5 -4 2 -3 7 2 13 9 14 17
2 23 15 49 26 49 5 0 6 -4 3 -10 -3 -5 -1 -10 4 -10 6 0 11 4 11 8 0 5 14 8
30 8 17 0 30 -4 30 -10 0 -6 4 -5 9 3 5 8 18 12 30 8 12 -3 21 -1 21 5 0 6 11
8 25 6 13 -3 22 -2 20 2 -4 7 30 21 39 17 2 -1 13 7 25 17 12 11 21 15 21 10
0 -5 4 -3 9 4 6 10 11 9 22 -4 13 -16 11 -17 -14 -12 -19 4 -25 2 -19 -4 13
-13 48 -5 45 10 -2 7 4 12 12 12 8 0 15 5 15 10 0 7 -6 7 -20 0 -11 -6 -20 -9
-20 -6 0 2 31 36 69 74 38 39 67 73 63 76 -3 3 3 6 14 6 12 0 15 3 7 8 -8 5
-6 18 9 47 18 38 23 52 30 100 2 11 13 26 26 33 25 14 25 37 1 37 -11 0 -14
17 -15 72 0 65 1 71 18 68 11 -3 18 1 16 7 -2 6 -12 12 -22 14 -10 1 -21 6
-24 10 -4 4 1 5 10 1 9 -3 19 0 22 8 2 7 13 12 23 10 10 -1 24 2 31 8 8 6 17
5 27 -3 18 -15 20 0 3 20 -11 12 -10 12 4 1 15 -11 19 -11 25 5 11 29 35 44
51 32 9 -8 11 -7 6 6 -4 9 -2 16 4 14 5 -2 19 8 31 21 12 13 21 22 21 19 0 -8
64 57 90 90 11 13 21 22 21 18 1 -3 2 -12 3 -18 1 -7 11 -12 22 -11 14 1 20
-4 20 -17 0 -11 -6 -20 -13 -20 -7 0 -13 -5 -13 -10 0 -7 6 -7 18 -1 26 14 22
57 -4 54 -15 -2 -20 5 -22 26 -1 16 4 33 10 38 18 15 48 12 48 -4 0 -16 16
-17 26 -1 4 7 3 8 -4 4 -7 -4 -13 -2 -13 3 -1 6 -2 17 -3 24 -1 6 5 17 14 24
8 7 10 13 4 13 -11 0 -41 -30 -36 -37 1 -1 0 -3 -3 -3 -3 0 -7 0 -10 0 -3 0 9
22 25 49 17 26 30 53 30 60 0 6 8 11 18 11 13 0 14 2 4 9 -11 7 -11 15 2 45 8
20 12 36 8 36 -4 0 1 5 11 11 18 10 24 39 8 39 -6 0 -6 12 -1 30 11 37 10 33
10 71 0 21 4 28 13 23 9 -6 9 -5 0 8 -7 8 -14 45 -15 81 -2 37 -6 67 -9 67 -6
0 -7 9 -10 55 -1 14 -6 25 -11 25 -5 0 -7 4 -3 9 3 5 1 12 -5 16 -6 4 -7 11
-4 17 4 6 12 2 19 -12 10 -19 13 -20 18 -6 4 10 3 15 -2 12 -5 -3 -12 1 -15
10 -3 8 -11 12 -17 9 -10 -7 -22 19 -19 39 1 5 -3 12 -8 15 -19 12 -71 110
-62 116 6 4 10 11 10 17 0 7 -4 7 -13 0 -10 -8 -19 1 -41 40 -16 28 -23 47
-15 43 8 -5 2 3 -13 18 -16 14 -28 30 -28 35 0 5 -9 19 -20 32 -12 13 -18 30
-16 37 3 7 2 12 -2 11 -4 -1 -36 26 -71 60 -52 50 -62 64 -52 76 15 18 -5 34
-22 17 -9 -9 -7 -11 8 -5 15 5 17 4 9 -5 -8 -9 -24 -4 -66 21 l-56 33 -1 68
c-1 53 2 67 11 61 7 -4 5 2 -5 13 -14 16 -15 22 -5 26 11 5 10 7 -1 15 -15 11
-4 21 30 27 39 8 34 16 -7 9 -37 -5 -38 -5 -19 10 20 15 20 15 0 16 -15 0 -17
2 -6 13 10 10 15 8 27 -7 12 -17 14 -17 14 -4 0 9 -9 20 -20 23 -18 6 -20 15
-20 85 0 75 1 79 21 75 12 -3 26 -2 31 1 11 7 -19 49 -35 49 -9 0 -13 37 -15
137 -3 137 -3 137 19 133 12 -2 26 -2 31 1 11 7 -19 49 -35 49 -8 0 -13 26
-14 90 -1 50 -4 109 -7 132 -3 26 0 45 6 49 7 5 9 1 5 -9 -3 -10 -2 -17 4 -17
6 0 9 8 7 18 -2 9 -10 16 -19 15 -13 -3 -17 7 -21 55 -1 6 -5 12 -10 12 -5 0
-6 5 -3 10 3 6 1 10 -5 10 -7 0 -10 5 -8 11 9 26 -131 168 -199 202 -102 52
-74 51 -1059 52 -506 1 -925 5 -931 8 -6 4 -19 31 -28 60 -19 56 -109 246
-148 313 -156 260 -401 494 -687 656 -149 85 -395 167 -577 193 -18 3 -50 8
-70 11 -41 6 -319 14 -325 9z m4111 -1907 c10 -15 8 -17 -11 -14 -13 1 -24 10
-26 18 -4 21 23 18 37 -4z m0 -320 c10 -15 8 -17 -11 -14 -13 1 -24 10 -26 18
-4 21 23 18 37 -4z m-9 -2230 c0 -4 -2 -8 -4 -8 -2 0 -12 -3 -20 -6 -11 -4
-15 -2 -11 8 6 15 35 21 35 6z m-3303 -933 c0 -8 -6 -15 -14 -15 -14 0 -17 12
-6 23 11 11 20 8 20 -8z"/>
<path d="M6077 4979 c7 -7 15 -10 18 -7 3 3 -2 9 -12 12 -14 6 -15 5 -6 -5z"/>
<path d="M6107 4929 c6 -23 9 -24 16 -5 3 8 0 17 -7 19 -10 4 -12 -1 -9 -14z"/>
<path d="M6130 4912 c0 -5 9 -17 20 -27 11 -10 20 -15 20 -12 0 4 -9 16 -20
27 -11 11 -20 16 -20 12z"/>
<path d="M6129 4878 c12 -16 11 -18 -10 -19 -19 -1 -20 -2 -5 -6 27 -7 40 11
19 28 -16 13 -17 12 -4 -3z"/>
<path d="M6157 4853 c-4 -3 -7 -11 -7 -17 0 -6 5 -5 12 2 6 6 9 14 7 17 -3 3
-9 2 -12 -2z"/>
<path d="M6118 4823 c12 -2 20 -9 17 -14 -4 -5 1 -12 9 -15 9 -3 13 -10 10
-15 -3 -5 1 -6 8 -4 8 3 14 -2 15 -13 1 -11 -6 -18 -18 -19 -11 -1 -17 1 -15
5 2 4 -2 15 -9 25 -10 14 -14 15 -18 3 -7 -19 23 -46 48 -42 23 3 30 45 9 53
-8 3 -11 9 -8 14 3 5 -2 6 -11 3 -10 -4 -15 -2 -13 7 2 8 -7 14 -22 15 -22 2
-22 2 -2 -3z"/>
<path d="M6177 4819 c7 -7 15 -10 18 -7 3 3 -2 9 -12 12 -14 6 -15 5 -6 -5z"/>
<path d="M6101 4794 c0 -11 3 -14 6 -6 3 7 2 16 -1 19 -3 4 -6 -2 -5 -13z"/>
<path d="M6206 4757 c3 -10 9 -15 12 -12 3 3 0 11 -7 18 -10 9 -11 8 -5 -6z"/>
<path d="M6108 4723 c7 -3 16 -2 19 1 4 3 -2 6 -13 5 -11 0 -14 -3 -6 -6z"/>
<path d="M6190 4715 c0 -8 2 -15 4 -15 2 0 6 7 10 15 3 8 1 15 -4 15 -6 0 -10
-7 -10 -15z"/>
<path d="M6155 4710 c3 -5 8 -10 11 -10 2 0 4 5 4 10 0 6 -5 10 -11 10 -5 0
-7 -4 -4 -10z"/>
<path d="M6106 4698 c3 -4 11 -5 19 -1 11 4 13 1 9 -11 -3 -9 -10 -16 -15 -16
-5 0 -9 -6 -9 -12 1 -7 9 -2 20 11 22 26 19 40 -10 38 -10 -1 -17 -5 -14 -9z"/>
<path d="M6180 4680 c18 -12 30 -13 30 -2 0 4 -10 9 -22 9 -18 2 -20 0 -8 -7z"/>
<path d="M6150 4670 c0 -6 7 -10 15 -10 8 0 15 2 15 4 0 2 -7 6 -15 10 -8 3
-15 1 -15 -4z"/>
<path d="M6190 4651 c0 -7 -4 -9 -10 -6 -6 3 -7 -1 -4 -10 4 -10 2 -15 -7 -13
-8 2 -14 -3 -14 -11 0 -8 6 -15 13 -17 7 -1 8 0 2 3 -5 2 -10 9 -10 14 0 6 4
8 9 4 11 -6 36 33 27 43 -3 3 -6 0 -6 -7z"/>
<path d="M6130 4640 c0 -5 5 -10 10 -10 6 0 10 5 10 10 0 6 -4 10 -10 10 -5 0
-10 -4 -10 -10z"/>
<path d="M6193 4588 c-2 -18 0 -20 7 -8 12 18 13 30 2 30 -4 0 -9 -10 -9 -22z"/>
<path d="M6205 4560 c-7 -21 -27 -28 -22 -8 1 6 -7 13 -18 15 -18 3 -18 2 -2
-5 10 -4 18 -12 17 -17 -3 -17 20 -17 26 -1 3 9 10 13 15 10 5 -3 6 2 3 10 -8
21 -11 20 -19 -4z"/>
<path d="M6108 4553 c7 -3 16 -2 19 1 4 3 -2 6 -13 5 -11 0 -14 -3 -6 -6z"/>
<path d="M6112 4524 c-7 -8 -8 -14 -3 -14 10 0 25 19 20 25 -2 1 -10 -3 -17
-11z"/>
<path d="M6137 4515 c-6 -15 10 -32 20 -21 4 3 1 6 -5 6 -6 0 -9 7 -6 15 4 8
4 15 1 15 -3 0 -7 -7 -10 -15z"/>
<path d="M6175 4500 c-3 -5 -3 -10 2 -10 4 -1 -4 -7 -19 -16 -19 -10 -25 -19
-21 -32 5 -14 3 -15 -8 -4 -7 6 -17 12 -22 12 -5 0 1 -8 14 -18 33 -26 59 -24
70 7 6 14 18 32 27 40 13 10 13 12 2 9 -8 -2 -22 -17 -30 -34 -18 -35 -46 -43
-46 -14 0 13 5 19 14 15 7 -2 11 -1 8 4 -3 5 1 12 10 15 8 3 13 10 9 15 -3 5
5 12 17 14 23 4 23 4 1 6 -12 0 -25 -3 -28 -9z"/>
<path d="M6110 4480 c-13 -8 -12 -10 3 -10 9 0 17 5 17 10 0 12 -1 12 -20 0z"/>
<path d="M6210 4451 c0 -6 4 -13 10 -16 6 -3 7 1 4 9 -7 18 -14 21 -14 7z"/>
<path d="M6196 4415 c-3 -9 -6 -22 -5 -28 0 -7 5 -1 10 12 5 13 8 26 5 28 -2
2 -6 -3 -10 -12z"/>
<path d="M6108 4403 c7 -3 16 -2 19 1 4 3 -2 6 -13 5 -11 0 -14 -3 -6 -6z"/>
<path d="M6155 4390 c3 -5 8 -10 11 -10 2 0 4 5 4 10 0 6 -5 10 -11 10 -5 0
-7 -4 -4 -10z"/>
<path d="M6106 4378 c3 -4 11 -5 19 -1 11 4 13 1 9 -11 -3 -9 -10 -16 -15 -16
-5 0 -9 -6 -9 -12 1 -7 9 -2 20 11 22 26 19 40 -10 38 -10 -1 -17 -5 -14 -9z"/>
<path d="M6206 4375 c-3 -9 -12 -12 -23 -9 -16 5 -16 4 1 -6 15 -10 20 -9 27
1 9 15 12 29 5 29 -2 0 -6 -7 -10 -15z"/>
<path d="M6150 4350 c0 -5 6 -10 13 -10 7 0 13 -9 14 -20 1 -11 -4 -19 -10
-17 -7 1 -12 -4 -12 -12 0 -8 6 -15 13 -17 7 -1 8 0 2 3 -14 7 -13 24 2 21 20
-5 17 42 -3 53 -13 6 -19 6 -19 -1z"/>
<path d="M6212 4337 c-8 -9 -8 -17 0 -27 8 -13 9 -12 5 1 -3 9 0 22 6 28 6 6
8 11 5 11 -3 0 -10 -6 -16 -13z"/>
<path d="M6130 4320 c0 -5 5 -10 10 -10 6 0 10 5 10 10 0 6 -4 10 -10 10 -5 0
-10 -4 -10 -10z"/>
<path d="M6193 4268 c-2 -18 0 -20 7 -8 12 18 13 30 2 30 -4 0 -9 -10 -9 -22z"/>
<path d="M6205 4240 c-7 -21 -27 -28 -22 -8 1 6 -7 13 -18 15 -18 3 -18 2 -2
-5 10 -4 18 -12 17 -17 -3 -17 20 -17 26 -1 3 9 10 13 15 10 5 -3 6 2 3 10 -8
21 -11 20 -19 -4z"/>
<path d="M6108 4233 c7 -3 16 -2 19 1 4 3 -2 6 -13 5 -11 0 -14 -3 -6 -6z"/>
<path d="M6112 4204 c-7 -8 -8 -14 -3 -14 10 0 25 19 20 25 -2 1 -10 -3 -17
-11z"/>
<path d="M6137 4195 c-6 -15 10 -32 20 -21 4 3 1 6 -5 6 -6 0 -9 7 -6 15 4 8
4 15 1 15 -3 0 -7 -7 -10 -15z"/>
<path d="M6179 4183 c-1 -5 -1 -11 0 -15 0 -5 -3 -8 -7 -8 -5 0 -16 -6 -27
-13 -14 -11 -15 -16 -5 -22 9 -6 11 -4 5 5 -6 10 -4 12 9 7 9 -4 15 -3 12 2
-3 5 1 12 10 15 8 3 13 10 9 15 -3 5 5 12 17 14 l23 4 -22 2 c-13 0 -24 -2
-24 -6z"/>
<path d="M6110 4160 c-13 -8 -12 -10 3 -10 9 0 17 5 17 10 0 12 -1 12 -20 0z"/>
<path d="M6196 4149 c-13 -19 -12 -49 1 -49 3 0 3 7 -1 15 -3 9 3 24 14 35 11
11 16 20 11 20 -6 0 -17 -10 -25 -21z"/>
<path d="M6120 4110 c14 -10 27 -17 29 -14 6 5 -31 33 -44 33 -5 1 1 -8 15
-19z"/>
<path d="M6210 4100 c0 -5 5 -10 11 -10 5 0 7 5 4 10 -3 6 -8 10 -11 10 -2 0
-4 -4 -4 -10z"/>
<path d="M6160 4080 c-8 -5 -12 -11 -10 -14 3 -2 14 2 24 10 22 15 10 19 -14
4z"/>
<path d="M6187 4068 c-14 -12 -14 -15 -2 -32 8 -11 15 -15 15 -10 0 6 -5 15
-12 22 -16 16 4 16 22 0 12 -11 12 -10 2 4 -10 13 -10 17 0 21 7 3 8 6 2 6 -5
1 -18 -5 -27 -11z"/>
<path d="M6147 4028 c-27 -20 -6 -45 25 -30 21 11 21 12 1 7 -12 -3 -24 -1
-28 5 -3 5 1 10 9 10 9 0 16 5 16 10 0 13 -3 13 -23 -2z"/>
<path d="M6210 4020 c0 -5 5 -10 11 -10 5 0 7 5 4 10 -3 6 -8 10 -11 10 -2 0
-4 -4 -4 -10z"/>
<path d="M6185 3987 c-14 -11 -15 -16 -5 -22 9 -5 11 -4 6 3 -4 7 -3 12 3 12
5 0 12 -4 15 -8 6 -10 -9 -34 -20 -32 -5 1 -10 -3 -12 -9 -5 -16 27 -26 40
-13 8 8 5 9 -11 5 -13 -3 -21 -1 -21 6 0 7 4 10 9 6 6 -3 15 3 21 14 7 14 7
22 -1 27 -8 4 -7 9 2 15 8 5 9 9 3 9 -5 0 -18 -6 -29 -13z"/>
<path d="M6110 3980 c0 -5 5 -10 10 -10 6 0 10 5 10 10 0 6 -4 10 -10 10 -5 0
-10 -4 -10 -10z"/>
<path d="M6140 3954 c0 -8 -4 -13 -8 -10 -4 2 -14 0 -22 -5 -11 -7 -9 -8 9 -6
14 2 27 9 29 15 2 7 9 9 14 6 7 -4 8 -2 4 4 -10 17 -26 15 -26 -4z"/>
<path d="M6110 3910 c-8 -5 -10 -10 -5 -10 6 0 17 5 25 10 8 5 11 10 5 10 -5
0 -17 -5 -25 -10z"/>
<path d="M6150 3900 c0 -5 5 -10 10 -10 6 0 10 5 10 10 0 6 -4 10 -10 10 -5 0
-10 -4 -10 -10z"/>
<path d="M6101 3874 c0 -11 3 -14 6 -6 3 7 2 16 -1 19 -3 4 -6 -2 -5 -13z"/>
<path d="M6122 3878 c0 -7 -3 -24 -7 -38 -4 -17 -1 -14 9 9 18 39 19 41 8 41
-5 0 -9 -6 -10 -12z"/>
<path d="M6180 3875 c0 -9 -6 -12 -15 -9 -8 4 -15 4 -15 1 0 -16 31 -13 40 3
7 14 7 20 0 20 -5 0 -10 -7 -10 -15z"/>
<path d="M6196 3855 c-3 -9 -6 -22 -5 -28 0 -7 5 -1 10 12 5 13 8 26 5 28 -2
2 -6 -3 -10 -12z"/>
<path d="M6152 3836 c7 -8 15 -12 17 -11 5 6 -10 25 -20 25 -5 0 -4 -6 3 -14z"/>
<path d="M6130 3819 c0 -5 5 -7 10 -4 6 3 10 8 10 11 0 2 -4 4 -10 4 -5 0 -10
-5 -10 -11z"/>
<path d="M6170 3800 c0 -5 5 -10 10 -10 6 0 10 5 10 10 0 6 -4 10 -10 10 -5 0
-10 -4 -10 -10z"/>
<path d="M6410 3526 c0 -2 7 -7 16 -10 8 -3 12 -2 9 4 -6 10 -25 14 -25 6z"/>
<path d="M6436 3482 c-2 -4 2 -15 9 -25 11 -15 13 -15 18 -2 4 8 1 14 -6 12
-7 -1 -11 4 -9 11 2 13 -4 16 -12 4z"/>
<path d="M6490 3379 c0 -5 5 -7 10 -4 6 3 10 8 10 11 0 2 -4 4 -10 4 -5 0 -10
-5 -10 -11z"/>
<path d="M6517 3344 c-3 -4 1 -13 9 -21 19 -20 26 -13 10 9 -7 10 -16 15 -19
12z"/>
<path d="M6541 3297 c2 -1 13 -9 24 -17 19 -14 19 -14 6 3 -7 9 -18 17 -24 17
-6 0 -8 -1 -6 -3z"/>
<path d="M6621 3143 c3 -20 -2 -27 -11 -13 -5 8 -10 10 -10 4 0 -5 6 -18 13
-28 12 -17 14 -17 28 1 13 16 13 17 -3 4 -19 -15 -25 -2 -7 16 8 8 8 13 0 18
-6 3 -11 3 -10 -2z"/>
<path d="M6634 3078 c-4 -7 -4 -10 1 -6 4 4 14 0 21 -10 12 -15 12 -15 7 6 -6
24 -18 29 -29 10z"/>
<path d="M6620 3053 c11 -24 30 -31 30 -11 0 6 -3 8 -7 5 -3 -4 -12 1 -20 11
-13 15 -13 15 -3 -5z"/>
<path d="M6617 3009 c4 -13 8 -18 11 -10 2 7 -1 18 -6 23 -8 8 -9 4 -5 -13z"/>
<path d="M6656 3021 c-4 -5 -3 -17 1 -27 4 -10 2 -15 -3 -11 -6 3 -16 2 -24
-4 -11 -6 -12 -9 -2 -9 8 0 10 -5 6 -12 -4 -7 2 -4 14 6 15 13 20 26 16 39 -4
14 -3 17 6 12 9 -5 11 -4 6 3 -9 14 -13 15 -20 3z"/>
<path d="M6660 2955 c-10 -12 -9 -16 4 -21 9 -4 20 -4 23 0 4 3 -2 6 -12 6
-14 0 -15 3 -5 15 7 8 10 15 7 15 -2 0 -10 -7 -17 -15z"/>
<path d="M6635 2920 c-3 -6 -1 -18 5 -27 9 -16 10 -15 5 4 -5 18 -3 22 9 17 9
-3 16 -4 16 -1 0 10 -30 16 -35 7z"/>
<path d="M6673 2894 c-3 -8 -2 -19 3 -24 5 -5 9 1 9 16 0 28 -3 30 -12 8z"/>
<path d="M6615 2880 c-3 -5 -1 -10 4 -10 6 0 11 5 11 10 0 6 -2 10 -4 10 -3 0
-8 -4 -11 -10z"/>
<path d="M6632 2857 c-29 -13 -24 -42 7 -42 17 0 25 6 27 22 5 28 -5 33 -34
20z m25 -16 c-1 -18 -37 -27 -37 -9 0 5 27 26 37 28 1 0 1 -9 0 -19z"/>
<path d="M6630 2791 c0 -6 7 -11 15 -11 8 0 12 -6 9 -14 -3 -7 1 -16 9 -19 10
-4 14 0 13 11 -3 19 -46 50 -46 33z"/>
<path d="M6605 2760 c-3 -6 1 -7 9 -4 18 7 21 14 7 14 -6 0 -13 -4 -16 -10z"/>
<path d="M6619 2748 c-13 -46 0 -69 22 -40 13 15 12 16 -3 4 -15 -12 -17 -11
-15 7 1 16 6 20 22 15 16 -4 17 -3 5 5 -14 10 -29 14 -31 9z"/>
<path d="M6591 2724 c0 -11 3 -14 6 -6 3 7 2 16 -1 19 -3 4 -6 -2 -5 -13z"/>
<path d="M6651 2696 c-9 -11 -9 -16 1 -22 7 -4 10 -4 6 1 -4 4 -3 14 3 22 6 7
9 13 6 13 -2 0 -10 -6 -16 -14z"/>
<path d="M6588 2688 c12 -6 22 -15 22 -20 0 -5 -4 -6 -10 -3 -5 3 -10 1 -10
-4 0 -15 17 -14 26 1 7 11 -22 39 -40 37 -6 0 -1 -5 12 -11z"/>
<path d="M6634 2662 c3 -5 0 -13 -6 -15 -9 -4 -10 -6 -1 -6 17 -1 25 16 12 25
-7 4 -9 3 -5 -4z"/>
<path d="M6568 2642 c8 -5 13 -13 13 -18 -1 -14 22 -10 25 4 1 7 0 8 -3 2 -6
-14 -24 -13 -20 1 1 6 -5 14 -13 16 -12 4 -12 3 -2 -5z"/>
<path d="M6555 2600 c27 -12 43 -12 25 0 -8 5 -22 9 -30 9 -10 0 -8 -3 5 -9z"/>
<path d="M6605 2600 c-3 -6 1 -7 9 -4 18 7 21 14 7 14 -6 0 -13 -4 -16 -10z"/>
<path d="M6555 2570 c-3 -5 -1 -10 4 -10 6 0 11 5 11 10 0 6 -2 10 -4 10 -3 0
-8 -4 -11 -10z"/>
<path d="M6590 2565 c0 -8 4 -15 10 -15 5 0 7 7 4 15 -4 8 -8 15 -10 15 -2 0
-4 -7 -4 -15z"/>
<path d="M6550 2541 c8 -5 18 -7 23 -4 5 3 6 -5 3 -18 -6 -21 -6 -22 4 -6 14
21 8 30 -23 34 -17 2 -19 1 -7 -6z"/>
<path d="M6490 2516 c14 -18 13 -19 -2 -13 -10 3 -18 2 -18 -3 0 -12 27 -13
34 -1 3 5 -2 15 -12 22 -16 13 -16 13 -2 -5z"/>
<path d="M6550 2501 c0 -6 4 -13 10 -16 6 -3 7 1 4 9 -7 18 -14 21 -14 7z"/>
<path d="M6515 2490 c-4 -7 -2 -17 4 -23 9 -9 11 -7 6 8 -7 20 -6 20 9 1 9
-11 16 -15 16 -9 0 18 -27 36 -35 23z"/>
<path d="M6520 2439 c0 -5 5 -7 10 -4 6 3 10 8 10 11 0 2 -4 4 -10 4 -5 0 -10
-5 -10 -11z"/>
<path d="M6419 2423 c-1 -5 -1 -12 0 -16 1 -4 -4 -7 -11 -6 -7 1 -20 1 -28 0
-13 -1 -13 -3 -1 -10 17 -11 55 5 46 19 -3 5 5 11 17 13 l23 4 -22 2 c-13 0
-24 -2 -24 -6z"/>
<path d="M6440 2395 c-7 -9 -11 -17 -9 -20 3 -2 10 5 17 15 14 24 10 26 -8 5z"/>
<path d="M6453 2377 c-3 -5 0 -14 6 -20 9 -9 10 -7 5 7 -4 12 -4 17 2 13 6 -3
16 -2 24 3 11 7 9 9 -8 7 -13 -1 -26 -5 -29 -10z"/>
<path d="M6361 2374 c-1 -5 5 -18 12 -29 11 -14 16 -15 22 -5 6 9 4 11 -5 5
-10 -6 -12 -4 -7 9 4 9 3 15 -2 11 -5 -3 -12 1 -14 7 -3 7 -6 8 -6 2z"/>
<path d="M6407 2363 c9 -7 8 -15 -6 -36 -9 -15 -21 -24 -26 -20 -4 5 -5 2 0
-6 7 -12 10 -11 20 2 7 9 14 15 17 12 2 -3 5 1 5 8 0 6 2 18 4 26 2 7 -3 16
-11 18 -11 3 -11 2 -3 -4z"/>
<path d="M6340 2351 c0 -7 -5 -9 -12 -5 -7 5 -8 3 -3 -5 5 -9 10 -10 18 -2 6
6 8 14 4 18 -4 3 -7 1 -7 -6z"/>
<path d="M6314 2322 c3 -5 0 -13 -6 -15 -8 -3 -6 -6 5 -6 19 -1 23 14 5 25 -6
4 -8 3 -4 -4z"/>
<path d="M6350 2315 c0 -8 2 -15 4 -15 2 0 6 7 10 15 3 8 1 15 -4 15 -6 0 -10
-7 -10 -15z"/>
<path d="M6255 2300 c3 -5 8 -10 11 -10 2 0 4 5 4 10 0 6 -5 10 -11 10 -5 0
-7 -4 -4 -10z"/>
<path d="M6272 2284 c-7 -8 -8 -14 -3 -14 10 0 25 19 20 25 -2 1 -10 -3 -17
-11z"/>
<path d="M6297 2275 c-6 -15 10 -32 20 -21 4 3 1 6 -5 6 -6 0 -9 7 -6 15 4 8
4 15 1 15 -3 0 -7 -7 -10 -15z"/>
<path d="M6325 2280 c-3 -6 1 -7 9 -4 18 7 21 14 7 14 -6 0 -13 -4 -16 -10z"/>
<path d="M6220 2255 c-10 -12 -16 -13 -26 -4 -10 8 -18 9 -27 0 -8 -6 -17 -8
-20 -4 -4 3 -7 0 -7 -8 0 -12 -2 -11 -11 1 -9 13 -10 13 -7 0 3 -8 18 -15 38
-16 21 -1 28 1 19 7 -7 4 -10 11 -6 16 10 9 28 -17 20 -29 -2 -5 -13 -6 -24
-3 -14 5 -17 2 -13 -8 3 -8 1 -18 -5 -22 -7 -4 -8 0 -4 11 4 12 3 15 -6 10 -7
-5 -10 -14 -7 -22 3 -8 0 -11 -9 -7 -8 3 -12 10 -8 17 3 6 2 7 -2 3 -5 -4 -10
-14 -11 -22 -2 -11 5 -14 28 -10 22 4 28 2 22 -7 -4 -7 2 -4 14 6 26 23 30 34
5 15 -16 -13 -17 -12 -5 2 7 10 21 15 31 12 12 -3 24 5 36 24 l18 28 -28 -25
-28 -25 18 32 c10 18 22 30 27 27 4 -3 8 0 8 5 0 16 -16 13 -30 -4z"/>
<path d="M6335 2260 c-3 -6 1 -7 9 -4 18 7 21 14 7 14 -6 0 -13 -4 -16 -10z"/>
<path d="M6260 2246 c0 -2 9 -6 20 -9 11 -3 18 -1 14 4 -5 9 -34 13 -34 5z"/>
<path d="M6249 2213 c-13 -16 -12 -17 4 -4 16 13 21 21 13 21 -2 0 -10 -8 -17
-17z"/>
<path d="M6210 2165 c0 -8 4 -15 10 -15 5 0 7 7 4 15 -4 8 -8 15 -10 15 -2 0
-4 -7 -4 -15z"/>
<path d="M6180 2155 c-10 -12 -9 -16 4 -21 8 -3 21 -4 28 -1 7 3 2 6 -11 6
-20 1 -21 3 -11 16 7 8 10 15 7 15 -2 0 -10 -7 -17 -15z"/>
<path d="M6106 2138 c3 -4 11 -5 19 -1 11 4 14 0 9 -13 -5 -15 -4 -16 4 -4 14
18 7 29 -18 27 -10 -1 -17 -5 -14 -9z"/>
<path d="M6157 2123 c-11 -11 -8 -23 6 -23 7 0 13 -9 14 -20 1 -11 -4 -19 -10
-17 -7 1 -12 -4 -12 -12 0 -8 6 -15 13 -17 7 -1 8 0 2 3 -5 2 -10 9 -10 14 0
6 4 8 9 4 6 -3 15 3 21 14 8 16 6 23 -10 34 -11 7 -17 17 -13 20 3 4 4 7 1 7
-2 0 -8 -3 -11 -7z"/>
<path d="M6110 2100 c0 -5 7 -10 16 -10 8 0 12 -4 9 -10 -3 -5 -1 -10 4 -10
18 0 12 19 -9 30 -14 7 -20 7 -20 0z"/>
<path d="M6205 2063 c-11 -24 -17 -58 -9 -51 3 3 6 12 8 20 1 7 5 19 10 26 4
7 6 15 3 18 -2 3 -8 -3 -12 -13z"/>
<path d="M6142 2016 c10 -7 15 -16 11 -20 -4 -4 1 -4 10 0 12 4 17 2 15 -7 -2
-8 7 -14 22 -16 l25 -2 -25 8 c-14 5 -20 10 -15 10 12 2 -36 41 -50 40 -5 0
-2 -6 7 -13z"/>
<path d="M6210 2005 c0 -8 4 -15 10 -15 5 0 7 7 4 15 -4 8 -8 15 -10 15 -2 0
-4 -7 -4 -15z"/>
<path d="M6108 2003 c7 -3 16 -2 19 1 4 3 -2 6 -13 5 -11 0 -14 -3 -6 -6z"/>
<path d="M6093 1973 c-7 -18 5 -46 16 -38 5 3 12 1 16 -5 3 -5 -2 -10 -11 -10
-10 0 -15 -3 -11 -6 3 -3 15 -3 27 1 20 6 20 7 3 20 -10 7 -21 11 -25 9 -5 -3
-8 3 -8 13 0 11 8 19 19 20 14 1 18 -3 14 -15 -4 -14 -3 -14 5 -2 6 8 9 17 6
21 -7 12 -46 6 -51 -8z"/>
<path d="M6157 1963 c-4 -3 -7 -11 -7 -17 0 -6 5 -5 12 2 6 6 9 14 7 17 -3 3
-9 2 -12 -2z"/>
<path d="M6175 1940 c-3 -5 -3 -10 2 -10 4 -1 -4 -7 -19 -16 -26 -14 -30 -44
-6 -44 6 0 5 6 -2 15 -7 8 -8 15 -2 15 12 0 31 -22 29 -35 0 -5 6 -11 15 -13
18 -3 32 24 18 33 -6 4 -10 11 -10 16 0 6 5 7 12 3 6 -4 8 -3 4 4 -3 6 -2 13
4 17 6 4 8 11 5 16 -8 12 -42 12 -50 -1z m30 -20 c-14 -15 -15 -23 -6 -33 11
-14 5 -27 -12 -27 -6 0 -7 3 -4 7 4 3 0 14 -8 23 -14 16 -14 18 0 24 9 3 13
10 10 16 -3 6 4 10 16 10 21 0 22 -1 4 -20z"/>
<path d="M6076 1922 c-2 -4 -1 -14 4 -22 7 -11 9 -9 7 8 -1 24 -3 26 -11 14z"/>
<path d="M6060 1885 c0 -8 0 -18 0 -22 0 -17 41 -9 51 8 6 13 6 19 -1 19 -5 0
-10 -6 -10 -13 0 -7 -8 -13 -19 -14 -14 -1 -17 3 -14 18 3 10 3 19 -1 19 -3 0
-6 -7 -6 -15z"/>
<path d="M6113 1850 c-10 -14 -9 -21 2 -30 15 -12 39 -5 30 10 -3 5 2 11 10
13 11 3 10 4 -2 3 -10 -1 -17 -8 -15 -14 2 -13 -10 -16 -21 -5 -4 3 -2 12 5
20 6 7 9 15 7 18 -3 2 -10 -4 -16 -15z"/>
<path d="M6075 1830 c3 -5 8 -10 11 -10 2 0 4 5 4 10 0 6 -5 10 -11 10 -5 0
-7 -4 -4 -10z"/>
<path d="M6050 1823 c5 -2 8 -9 4 -14 -9 -15 23 -22 43 -10 15 9 13 10 -10 5
-19 -4 -27 -3 -25 6 2 7 -3 14 -10 16 -7 1 -8 0 -2 -3z"/>
<path d="M6165 1823 c13 -10 13 -36 0 -45 -5 -4 0 -6 12 -5 16 1 19 5 12 13
-5 7 -8 17 -7 24 2 7 -4 15 -12 17 -9 3 -11 1 -5 -4z"/>
<path d="M6020 1795 c0 -9 -6 -12 -15 -9 -8 4 -15 4 -15 1 0 -16 31 -13 40 3
7 14 7 20 0 20 -5 0 -10 -7 -10 -15z"/>
<path d="M6031 1767 c-13 -21 -12 -21 5 -5 10 10 16 20 13 22 -3 3 -11 -5 -18
-17z"/>
<path d="M6099 1783 c-1 -4 -1 -11 0 -15 0 -4 -7 -7 -17 -5 -9 1 -17 -2 -17
-6 0 -5 -13 -14 -30 -21 -25 -10 -26 -13 -12 -19 10 -4 16 -3 13 2 -3 5 4 11
15 14 12 3 18 10 14 16 -4 7 3 10 17 8 14 -1 22 3 21 11 -2 6 6 12 18 12 11 0
17 -5 14 -10 -3 -6 2 -13 12 -17 10 -4 21 -11 25 -17 5 -7 8 -7 8 2 0 7 -9 17
-20 22 -11 6 -19 13 -17 18 1 4 -8 8 -20 10 -13 2 -24 0 -24 -5z"/>
<path d="M5975 1761 c-3 -6 -3 -11 2 -11 4 0 -5 -9 -22 -20 -25 -16 -26 -19
-8 -17 12 0 20 4 17 8 -2 4 3 10 12 13 8 3 12 10 9 16 -3 5 -2 10 4 10 5 0 12
-5 14 -10 3 -6 4 -5 3 2 -3 16 -23 22 -31 9z"/>
<path d="M6104 1733 c-4 -10 -6 -21 -6 -25 3 -11 -5 -10 -31 3 -21 10 -21 10
-2 -6 22 -17 40 -15 40 5 0 7 6 15 14 18 8 3 11 0 7 -7 -4 -6 -2 -11 3 -11 13
0 13 3 5 24 -8 21 -20 20 -30 -1z"/>
<path d="M5976 1701 c-8 -13 31 -54 44 -46 5 3 8 16 6 28 -3 23 -39 36 -50 18z
m41 -20 c1 -13 -3 -18 -12 -15 -22 9 -27 34 -7 34 10 0 18 -8 19 -19z"/>
<path d="M5951 1690 c0 -8 4 -22 9 -30 12 -18 12 -2 0 25 -6 13 -9 15 -9 5z"/>
<path d="M6041 1697 c-2 -23 20 -45 40 -40 15 4 20 2 15 -5 -3 -6 -2 -13 3
-16 5 -4 12 -2 15 3 9 13 -22 34 -40 27 -12 -5 -15 -2 -10 9 3 9 2 14 -3 10
-5 -3 -12 1 -14 7 -3 7 -6 9 -6 5z"/>
<path d="M6110 1680 c0 -6 7 -10 15 -10 8 0 15 2 15 4 0 2 -7 6 -15 10 -8 3
-15 1 -15 -4z"/>
<path d="M5911 1650 c-13 -11 -20 -20 -15 -20 4 0 16 7 26 17 10 9 18 11 18 6
0 -6 -7 -16 -15 -23 -8 -7 -15 -17 -15 -23 0 -6 7 -1 16 12 15 21 18 22 26 7
5 -9 13 -14 19 -11 5 4 9 -3 9 -14 0 -12 -5 -20 -12 -18 -16 3 -23 -32 -8 -47
9 -8 10 -4 5 17 -6 21 -4 27 6 25 9 -2 14 6 14 22 0 15 -5 24 -12 23 -7 -2
-13 1 -13 5 0 5 -6 16 -12 25 -12 15 -15 14 -37 -3z"/>
<path d="M5802 1634 c-7 -8 -8 -14 -3 -14 10 0 25 19 20 25 -2 1 -10 -3 -17
-11z"/>
<path d="M5837 1643 c-12 -11 -8 -23 9 -23 8 0 12 -5 9 -10 -4 -6 -16 -8 -28
-5 -20 5 -20 4 1 -7 19 -9 25 -9 33 3 6 9 4 18 -6 25 -8 6 -12 14 -8 17 3 4 4
7 1 7 -2 0 -8 -3 -11 -7z"/>
<path d="M5985 1640 c3 -5 11 -10 16 -10 6 0 7 5 4 10 -3 6 -11 10 -16 10 -6
0 -7 -4 -4 -10z"/>
<path d="M6036 1635 c4 -8 8 -15 10 -15 2 0 4 7 4 15 0 8 -4 15 -10 15 -5 0
-7 -7 -4 -15z"/>
<path d="M6070 1631 c0 -5 5 -13 10 -16 6 -3 10 -2 10 4 0 5 -4 13 -10 16 -5
3 -10 2 -10 -4z"/>
<path d="M6015 1620 c-9 -14 1 -27 25 -33 11 -3 18 -1 15 3 -3 5 1 11 7 14 7
3 1 3 -15 -1 -22 -4 -26 -2 -21 11 7 18 -1 22 -11 6z"/>
<path d="M5741 1602 c-1 -13 -5 -21 -10 -18 -5 3 -16 -5 -25 -19 -15 -23 -15
-25 5 -35 11 -7 23 -9 27 -6 3 3 0 6 -7 6 -7 0 -9 4 -6 10 4 6 -1 7 -10 3 -15
-5 -15 -3 -4 15 7 11 17 18 21 16 11 -7 21 22 15 38 -3 7 -6 3 -6 -10z"/>
<path d="M5881 1613 c-1 -6 -4 -20 -7 -30 -5 -17 -5 -17 6 0 6 10 9 23 6 30
-3 9 -5 9 -5 0z"/>
<path d="M3301 1598 c15 -12 15 -16 3 -32 -17 -24 -9 -37 19 -32 35 5 31 44
-7 62 -21 10 -26 11 -15 2z m36 -36 c1 -11 -6 -18 -18 -19 -16 -2 -17 1 -9 18
13 24 25 25 27 1z"/>
<path d="M3348 1598 c5 -5 16 -8 23 -6 8 3 3 7 -10 11 -17 4 -21 3 -13 -5z"/>
<path d="M3470 1596 c8 -10 15 -25 16 -33 2 -8 6 -18 10 -21 4 -4 5 0 1 9 -3
9 0 22 6 28 8 8 8 14 -2 24 -10 10 -11 8 -5 -8 l7 -20 -24 20 c-20 17 -22 17
-9 1z"/>
<path d="M3541 1598 c11 -10 13 -18 4 -34 -5 -11 -16 -19 -23 -16 -18 6 -15
-5 3 -12 11 -4 19 3 25 19 10 25 32 35 28 13 -2 -8 6 -12 20 -11 13 2 21 -1
17 -7 -3 -5 3 -14 14 -19 22 -12 45 7 36 31 -4 9 2 14 15 15 11 1 18 -2 15 -7
-12 -20 19 -21 38 -1 17 17 19 23 9 33 -11 11 -12 9 -6 -7 l7 -20 -24 20 -24
20 18 -21 c9 -11 14 -24 10 -27 -11 -11 -23 -8 -20 6 1 7 -8 12 -23 12 -19 -1
-25 -6 -23 -21 1 -13 -4 -20 -17 -21 -11 -1 -19 4 -17 10 1 7 -8 11 -21 10
-13 -2 -21 1 -17 7 3 5 -9 16 -27 25 -19 9 -27 11 -17 3z"/>
<path d="M3588 1598 c5 -5 16 -8 23 -6 8 3 3 7 -10 11 -17 4 -21 3 -13 -5z"/>
<path d="M3780 1598 c0 -4 6 -8 14 -8 8 0 17 4 20 8 2 4 -4 8 -15 8 -10 0 -19
-4 -19 -8z"/>
<path d="M3916 1597 c3 -10 9 -15 12 -12 3 3 0 11 -7 18 -10 9 -11 8 -5 -6z"/>
<path d="M3996 1597 c3 -10 9 -15 12 -12 3 3 0 11 -7 18 -10 9 -11 8 -5 -6z"/>
<path d="M4076 1597 c3 -10 9 -15 12 -12 3 3 0 11 -7 18 -10 9 -11 8 -5 -6z"/>
<path d="M4263 1596 c12 -9 14 -16 8 -21 -14 -8 -14 -25 -1 -25 6 0 9 5 8 11
-2 6 2 13 8 16 7 2 11 -6 10 -19 -1 -18 4 -23 24 -23 26 0 36 26 12 31 -7 1
-8 0 -2 -3 16 -8 12 -19 -9 -20 -14 -1 -19 4 -16 18 3 13 -5 24 -28 35 -26 12
-28 12 -14 0z"/>
<path d="M4308 1598 c5 -5 16 -8 23 -6 8 3 3 7 -10 11 -17 4 -21 3 -13 -5z"/>
<path d="M4433 1594 c9 -11 14 -25 10 -30 -4 -5 1 -1 12 8 15 14 17 20 6 30
-10 11 -11 9 -5 -7 l7 -20 -24 20 -24 20 18 -21z"/>
<path d="M4503 1596 c12 -9 14 -16 8 -21 -14 -8 -14 -25 -1 -25 6 0 9 5 8 11
-2 6 3 14 11 17 9 3 11 0 6 -8 -5 -9 -4 -11 3 -6 17 11 15 14 -20 31 -26 12
-29 13 -15 1z"/>
<path d="M4548 1598 c5 -5 16 -8 23 -6 8 3 3 7 -10 11 -17 4 -21 3 -13 -5z"/>
<path d="M4671 1595 c9 -11 14 -26 12 -32 -3 -7 1 -13 8 -13 7 0 9 3 6 7 -4 3
-2 12 5 20 8 10 8 17 -1 26 -10 9 -11 8 -5 -8 l7 -20 -24 20 -24 20 16 -20z"/>
<path d="M4740 1598 c0 -4 6 -8 14 -8 8 0 17 4 20 8 2 4 -4 8 -15 8 -10 0 -19
-4 -19 -8z"/>
<path d="M4876 1597 c3 -10 9 -15 12 -12 3 3 0 11 -7 18 -10 9 -11 8 -5 -6z"/>
<path d="M4956 1597 c3 -10 9 -15 12 -12 3 3 0 11 -7 18 -10 9 -11 8 -5 -6z"/>
<path d="M5036 1597 c3 -10 9 -15 12 -12 3 3 0 11 -7 18 -10 9 -11 8 -5 -6z"/>
<path d="M5116 1597 c3 -10 9 -15 12 -12 3 3 0 11 -7 18 -10 9 -11 8 -5 -6z"/>
<path d="M5196 1597 c3 -10 9 -15 12 -12 3 3 0 11 -7 18 -10 9 -11 8 -5 -6z"/>
<path d="M5276 1597 c3 -10 9 -15 12 -12 3 3 0 11 -7 18 -10 9 -11 8 -5 -6z"/>
<path d="M5356 1597 c3 -10 9 -15 12 -12 3 3 0 11 -7 18 -10 9 -11 8 -5 -6z"/>
<path d="M5471 1595 c9 -11 14 -26 12 -32 -3 -7 1 -13 8 -13 7 0 9 3 6 7 -4 3
-2 12 5 20 8 10 8 17 -1 26 -10 9 -11 8 -5 -8 l7 -20 -24 20 -24 20 16 -20z"/>
<path d="M5630 1602 c0 -4 9 -13 20 -20 11 -7 20 -9 20 -4 0 4 -9 13 -20 20
-11 7 -20 9 -20 4z"/>
<path d="M5690 1600 c0 -5 5 -10 10 -10 6 0 10 5 10 10 0 6 -4 10 -10 10 -5 0
-10 -4 -10 -10z"/>
<path d="M5926 1594 c-3 -8 -10 -13 -14 -10 -5 3 -16 -4 -25 -15 -9 -10 -13
-19 -7 -19 5 0 13 8 19 18 5 9 11 16 13 14 6 -6 38 10 38 19 0 15 -17 10 -24
-7z"/>
<path d="M3260 1591 c0 -7 -4 -10 -9 -7 -10 7 -46 -43 -37 -51 3 -3 11 6 17
20 7 15 15 24 20 22 10 -6 23 14 15 22 -3 4 -6 1 -6 -6z"/>
<path d="M3831 1591 c-8 -5 -16 -20 -18 -33 -2 -17 -1 -19 6 -8 5 8 7 18 5 22
-3 4 2 8 10 8 9 0 16 5 16 10 0 12 -1 12 -19 1z"/>
<path d="M4220 1592 c0 -7 -6 -11 -12 -9 -7 1 -13 -4 -13 -12 0 -8 6 -15 13
-17 7 -1 8 0 2 3 -5 2 -10 9 -10 14 0 6 4 8 9 4 11 -6 26 13 17 22 -3 4 -6 1
-6 -5z"/>
<path d="M4789 1590 c-19 -11 -18 -52 2 -58 8 -2 10 0 4 5 -15 12 -15 43 1 43
8 0 14 5 14 10 0 12 -1 12 -21 0z"/>
<path d="M3272 1570 c-7 -11 -8 -20 -3 -20 9 0 24 30 18 36 -1 2 -8 -6 -15
-16z"/>
<path d="M3414 1578 c-3 -5 -3 -12 0 -15 3 -4 6 -2 6 3 0 5 9 10 21 11 17 2
18 -1 9 -13 -9 -10 -9 -14 -1 -14 6 0 11 5 11 10 0 6 0 13 0 18 0 10 -39 11
-46 0z"/>
<path d="M3516 1573 c-6 -14 -5 -15 5 -6 7 7 10 15 7 18 -3 3 -9 -2 -12 -12z"/>
<path d="M3757 1575 c-8 -20 9 -28 30 -15 16 9 15 10 -4 5 -18 -5 -22 -3 -17
9 3 9 4 16 1 16 -3 0 -7 -7 -10 -15z"/>
<path d="M4239 1583 c0 -5 -3 -19 -5 -32 -2 -14 -2 -22 1 -19 8 8 17 58 10 58
-3 0 -5 -3 -6 -7z"/>
<path d="M4374 1579 c-7 -12 4 -29 19 -28 9 0 9 2 0 6 -19 7 -16 19 6 20 14 1
19 -4 16 -18 -4 -19 30 -47 43 -35 3 3 0 6 -7 6 -7 0 -9 4 -6 10 3 5 0 7 -8 4
-10 -4 -14 2 -13 18 1 17 -5 23 -22 24 -12 1 -25 -3 -28 -7z"/>
<path d="M4472 1569 c-13 -20 -9 -39 9 -39 5 0 9 5 9 11 0 5 -4 7 -10 4 -14
-9 -13 8 2 23 6 6 10 14 7 16 -3 3 -10 -4 -17 -15z"/>
<path d="M4613 1574 c-3 -7 -3 -19 0 -26 3 -7 6 -4 6 7 1 27 37 31 37 4 0 -12
-5 -18 -14 -14 -7 2 -11 1 -8 -4 3 -5 -1 -11 -9 -15 -8 -3 -19 3 -24 12 -6 9
-11 13 -11 8 0 -5 7 -18 17 -28 15 -17 15 -18 -6 -18 -12 0 -20 4 -17 9 6 10
-43 46 -51 38 -3 -3 7 -11 21 -19 14 -7 25 -17 25 -23 1 -11 41 -14 41 -2 0 4
11 14 23 21 31 20 30 61 -2 62 -13 1 -25 -5 -28 -12z"/>
<path d="M4719 1583 c0 -5 -3 -19 -5 -32 -2 -14 -2 -22 1 -19 8 8 17 58 10 58
-3 0 -5 -3 -6 -7z"/>
<path d="M5445 1583 c17 -14 14 -43 -4 -40 -9 1 -16 0 -17 -3 0 -3 -6 -16 -13
-30 -11 -23 -11 -24 3 -6 9 10 13 23 10 27 -3 5 5 8 17 6 18 -1 23 3 23 22 0
14 -6 26 -14 29 -9 2 -11 0 -5 -5z"/>
<path d="M5590 1581 c8 -5 18 -7 22 -5 4 3 8 -3 8 -13 0 -11 -8 -19 -19 -20
-14 -1 -18 3 -14 15 4 14 3 14 -5 2 -14 -19 -6 -30 21 -26 33 5 30 48 -3 53
-18 2 -21 1 -10 -6z"/>
<path d="M5773 1574 c-3 -8 -9 -12 -13 -9 -14 9 -23 -16 -11 -28 9 -9 10 -7 5
7 -5 14 -4 17 4 12 7 -4 14 -1 17 6 3 8 14 14 25 15 16 1 18 -1 8 -17 -7 -10
-16 -18 -21 -17 -5 1 -12 -4 -14 -10 -7 -18 22 -27 44 -14 15 9 13 10 -9 5
-18 -4 -28 -2 -28 6 0 6 4 9 9 6 5 -3 16 5 25 19 9 14 15 26 14 26 -17 8 -51
3 -55 -7z"/>
<path d="M5992 1569 c-7 -12 -11 -24 -8 -27 3 -3 6 0 6 7 0 7 4 10 8 7 4 -2 9
4 9 15 2 24 1 24 -15 -2z"/>
<path d="M4155 1570 c-3 -5 -1 -10 4 -10 6 0 11 5 11 10 0 6 -2 10 -4 10 -3 0
-8 -4 -11 -10z"/>
<path d="M5672 1564 c-7 -8 -8 -14 -3 -14 10 0 25 19 20 25 -2 1 -10 -3 -17
-11z"/>
<path d="M3156 1558 c3 -4 11 -5 19 -1 21 7 19 12 -4 10 -11 0 -18 -5 -15 -9z"/>
<path d="M3370 1560 c8 -5 20 -10 25 -10 6 0 3 5 -5 10 -8 5 -19 10 -25 10 -5
0 -3 -5 5 -10z"/>
<path d="M3836 1553 c-6 -14 -5 -15 5 -6 7 7 10 15 7 18 -3 3 -9 -2 -12 -12z"/>
<path d="M3910 1562 c0 -4 10 -9 22 -9 18 -2 20 0 8 7 -18 12 -30 13 -30 2z"/>
<path d="M3994 1561 c3 -5 -1 -12 -10 -15 -9 -4 -14 -9 -11 -13 4 -3 2 -15 -4
-27 -10 -20 -9 -20 5 -2 9 10 13 22 11 26 -3 5 2 10 10 14 17 6 20 26 4 26 -5
0 -8 -4 -5 -9z"/>
<path d="M4070 1562 c0 -4 10 -9 22 -9 18 -2 20 0 8 7 -18 12 -30 13 -30 2z"/>
<path d="M4560 1560 c0 -5 5 -10 10 -10 6 0 10 5 10 10 0 6 -4 10 -10 10 -5 0
-10 -4 -10 -10z"/>
<path d="M4740 1560 c0 -5 5 -10 10 -10 6 0 10 5 10 10 0 6 -4 10 -10 10 -5 0
-10 -4 -10 -10z"/>
<path d="M4870 1562 c0 -4 10 -9 22 -9 18 -2 20 0 8 7 -18 12 -30 13 -30 2z"/>
<path d="M4954 1561 c3 -5 -1 -12 -10 -15 -9 -4 -14 -9 -11 -13 4 -3 2 -15 -4
-27 -10 -20 -9 -20 5 -2 9 10 13 22 11 26 -3 5 2 10 10 14 17 6 20 26 4 26 -5
0 -8 -4 -5 -9z"/>
<path d="M5030 1562 c0 -4 10 -9 22 -9 18 -2 20 0 8 7 -18 12 -30 13 -30 2z"/>
<path d="M5114 1561 c3 -5 -1 -12 -10 -15 -9 -4 -14 -9 -11 -13 4 -3 2 -15 -4
-27 -10 -20 -9 -20 5 -2 9 10 13 22 11 26 -3 5 2 10 10 14 17 6 20 26 4 26 -5
0 -8 -4 -5 -9z"/>
<path d="M5190 1562 c0 -4 10 -9 22 -9 18 -2 20 0 8 7 -18 12 -30 13 -30 2z"/>
<path d="M5274 1561 c3 -5 -1 -12 -10 -15 -9 -4 -14 -9 -11 -13 4 -3 2 -15 -4
-27 -10 -20 -9 -20 5 -2 9 10 13 22 11 26 -3 5 2 10 10 14 17 6 20 26 4 26 -5
0 -8 -4 -5 -9z"/>
<path d="M5350 1562 c0 -4 10 -9 22 -9 18 -2 20 0 8 7 -18 12 -30 13 -30 2z"/>
<path d="M5513 1548 c-2 -18 0 -20 7 -8 12 18 13 30 2 30 -4 0 -9 -10 -9 -22z"/>
<path d="M5835 1560 c-9 -14 4 -32 17 -24 8 5 9 1 5 -10 -4 -10 -3 -15 3 -11
6 3 10 1 10 -6 0 -7 3 -10 6 -7 9 10 -16 49 -27 43 -5 -4 -9 -2 -9 4 0 5 6 12
13 14 9 4 9 6 0 6 -6 1 -15 -3 -18 -9z"/>
<path d="M5921 1553 c-5 -10 -13 -17 -18 -15 -4 1 -8 -6 -9 -16 -1 -10 5 -19
13 -19 9 0 10 4 3 11 -13 13 -13 29 -1 21 6 -3 15 4 21 15 13 24 5 27 -9 3z"/>
<path d="M3177 1543 c-6 -13 -3 -38 6 -40 16 -6 27 -2 27 8 0 8 -5 7 -16 -2
-14 -11 -15 -10 -12 7 1 10 8 22 13 26 6 5 6 8 -2 8 -6 0 -14 -3 -16 -7z"/>
<path d="M3248 1535 c6 -11 10 -24 10 -30 0 -5 5 -10 12 -11 6 -2 7 -1 0 3 -5
2 -8 8 -5 12 2 5 -2 17 -11 27 -15 18 -15 18 -6 -1z"/>
<path d="M3359 1543 c0 -5 -3 -19 -5 -32 -2 -14 -2 -22 1 -19 8 8 17 58 10 58
-3 0 -5 -3 -6 -7z"/>
<path d="M3424 1535 c11 -8 23 -15 28 -15 4 0 7 -6 6 -12 -2 -8 7 -13 22 -13
15 0 24 5 23 13 -3 14 13 16 20 2 3 -6 4 -5 3 2 -2 7 -10 13 -20 13 -9 0 -21
7 -26 15 -5 8 -10 11 -10 6 0 -5 7 -18 17 -28 15 -17 15 -18 -6 -18 -12 0 -20
4 -17 9 3 5 -5 16 -19 25 -30 20 -47 21 -21 1z"/>
<path d="M3556 1535 c-3 -9 -6 -22 -5 -28 0 -7 5 -1 10 12 5 13 8 26 5 28 -2
2 -6 -3 -10 -12z"/>
<path d="M3676 1534 c-8 -20 -8 -24 2 -24 4 0 8 9 9 20 2 24 -3 26 -11 4z"/>
<path d="M3744 1535 c11 -8 23 -15 28 -15 4 0 7 -6 6 -12 -2 -8 7 -13 22 -13
14 0 24 5 23 12 -3 16 47 10 58 -8 5 -8 9 -10 9 -5 0 5 -7 18 -17 28 -15 17
-15 18 5 18 12 0 21 -6 20 -12 -2 -7 3 -13 11 -13 8 0 15 6 17 13 1 7 0 8 -3
2 -7 -14 -23 -12 -20 3 1 7 -8 12 -23 12 -14 0 -24 -5 -23 -12 3 -16 -47 -10
-58 8 -5 8 -9 10 -9 5 0 -5 7 -18 17 -28 15 -17 15 -18 -6 -18 -12 0 -20 4
-17 9 3 5 -5 16 -19 25 -30 20 -47 21 -21 1z"/>
<path d="M4015 1541 c-3 -6 -3 -11 1 -11 4 0 -1 -7 -12 -15 -10 -8 -14 -15 -9
-15 6 0 3 -5 -5 -11 -10 -7 -11 -9 -2 -7 8 2 13 7 12 12 -4 19 25 25 38 9 6
-9 12 -13 12 -8 0 5 -7 17 -17 27 -15 17 -15 18 5 18 12 0 21 -6 20 -12 -2 -7
3 -13 11 -13 8 0 15 6 17 13 1 7 0 8 -3 2 -7 -14 -24 -13 -20 2 3 16 -39 23
-48 9z"/>
<path d="M4134 1539 c-3 -5 -3 -9 1 -9 3 0 1 -10 -5 -22 -11 -22 -10 -22 4 -4
9 10 13 23 9 29 -3 5 3 6 15 3 11 -4 23 -3 26 2 3 5 -6 10 -19 10 -14 0 -28
-4 -31 -9z"/>
<path d="M4355 1529 c-9 -28 10 -48 28 -30 10 12 9 13 -7 7 -15 -5 -17 -2 -12
19 8 30 0 34 -9 4z"/>
<path d="M4815 1541 c-3 -6 -3 -11 2 -11 4 0 1 -5 -7 -11 -13 -9 -12 -10 2 -5
10 3 22 -2 27 -12 6 -9 11 -13 11 -8 0 5 -7 18 -17 28 -15 17 -15 18 5 18 12
0 21 -6 20 -12 -2 -7 3 -13 11 -13 8 0 15 6 17 13 1 7 0 8 -3 2 -7 -14 -24
-13 -20 2 3 16 -39 23 -48 9z"/>
<path d="M4975 1541 c-3 -6 -3 -11 1 -11 4 0 -1 -7 -12 -15 -10 -8 -14 -15 -9
-15 6 0 3 -5 -5 -11 -10 -7 -11 -9 -2 -7 8 2 13 7 12 12 -4 19 25 25 38 9 6
-9 12 -13 12 -8 0 5 -7 17 -17 27 -15 17 -15 18 5 18 12 0 21 -6 20 -12 -2 -7
3 -13 11 -13 8 0 15 6 17 13 1 7 0 8 -3 2 -7 -14 -24 -13 -20 2 3 16 -39 23
-48 9z"/>
<path d="M5135 1541 c-3 -6 -3 -11 1 -11 4 0 -1 -7 -12 -15 -10 -8 -14 -15 -9
-15 6 0 3 -5 -5 -11 -10 -7 -11 -9 -2 -7 8 2 13 7 12 12 -4 19 25 25 38 9 6
-9 12 -13 12 -8 0 5 -7 17 -17 27 -15 17 -15 18 5 18 12 0 21 -6 20 -12 -2 -7
3 -13 11 -13 8 0 15 6 17 13 1 7 0 8 -3 2 -7 -14 -24 -13 -20 2 3 16 -39 23
-48 9z"/>
<path d="M5295 1541 c-3 -6 -3 -11 1 -11 4 0 -1 -7 -12 -15 -10 -8 -14 -15 -9
-15 6 0 3 -5 -5 -11 -10 -7 -11 -9 -2 -7 8 2 13 7 12 12 -4 19 25 25 38 9 6
-9 12 -13 12 -8 0 5 -7 17 -17 27 -15 17 -15 18 5 18 12 0 21 -6 20 -12 -2 -7
3 -13 11 -13 8 0 15 6 17 13 1 7 0 8 -3 2 -7 -14 -24 -13 -20 2 3 16 -39 23
-48 9z"/>
<path d="M5635 1529 c-9 -28 10 -48 28 -30 10 12 9 13 -7 7 -15 -5 -17 -2 -12
19 8 30 0 34 -9 4z"/>
<path d="M3141 1513 c-10 -26 -10 -27 4 -9 8 11 15 23 15 28 0 15 -7 8 -19
-19z"/>
<path d="M3276 1527 c3 -10 9 -15 12 -12 3 3 0 11 -7 18 -10 9 -11 8 -5 -6z"/>
<path d="M3951 1524 c0 -11 3 -14 6 -6 3 7 2 16 -1 19 -3 4 -6 -2 -5 -13z"/>
<path d="M4111 1524 c0 -11 3 -14 6 -6 3 7 2 16 -1 19 -3 4 -6 -2 -5 -13z"/>
<path d="M4253 1520 c1 -14 6 -23 11 -22 5 2 13 -2 18 -10 8 -11 9 -11 6 0 -2
8 -8 13 -13 12 -6 -1 -13 9 -17 22 -7 22 -7 22 -5 -2z"/>
<path d="M4282 1524 c10 -10 20 -16 22 -13 3 3 -5 11 -17 18 -21 13 -21 12 -5
-5z"/>
<path d="M4733 1520 c1 -14 6 -23 11 -22 5 2 13 -2 18 -10 8 -11 9 -11 6 0 -2
8 -8 13 -13 12 -6 -1 -13 9 -17 22 -7 22 -7 22 -5 -2z"/>
<path d="M4762 1524 c10 -10 20 -16 22 -13 3 3 -5 11 -17 18 -21 13 -21 12 -5
-5z"/>
<path d="M4911 1524 c0 -11 3 -14 6 -6 3 7 2 16 -1 19 -3 4 -6 -2 -5 -13z"/>
<path d="M5071 1524 c0 -11 3 -14 6 -6 3 7 2 16 -1 19 -3 4 -6 -2 -5 -13z"/>
<path d="M5231 1524 c0 -11 3 -14 6 -6 3 7 2 16 -1 19 -3 4 -6 -2 -5 -13z"/>
<path d="M5391 1524 c0 -11 3 -14 6 -6 3 7 2 16 -1 19 -3 4 -6 -2 -5 -13z"/>
<path d="M5533 1520 c1 -14 6 -23 11 -22 5 2 13 -2 18 -10 8 -11 9 -11 6 0 -2
8 -8 13 -13 12 -6 -1 -13 9 -17 22 -7 22 -7 22 -5 -2z"/>
<path d="M5562 1524 c10 -10 20 -16 22 -13 3 3 -5 11 -17 18 -21 13 -21 12 -5
-5z"/>
<path d="M3231 1514 c0 -11 3 -14 6 -6 3 7 2 16 -1 19 -3 4 -6 -2 -5 -13z"/>
<path d="M3388 1523 c7 -3 16 -2 19 1 4 3 -2 6 -13 5 -11 0 -14 -3 -6 -6z"/>
<path d="M3580 1526 c0 -2 7 -6 15 -10 8 -3 15 -1 15 4 0 6 -7 10 -15 10 -8 0
-15 -2 -15 -4z"/>
<path d="M3708 1523 c7 -3 16 -2 19 1 4 3 -2 6 -13 5 -11 0 -14 -3 -6 -6z"/>
<path d="M4198 1523 c7 -3 16 -2 19 1 4 3 -2 6 -13 5 -11 0 -14 -3 -6 -6z"/>
<path d="M4380 1526 c0 -2 7 -6 15 -10 8 -3 15 -1 15 4 0 6 -7 10 -15 10 -8 0
-15 -2 -15 -4z"/>
<path d="M4508 1523 c7 -3 16 -2 19 1 4 3 -2 6 -13 5 -11 0 -14 -3 -6 -6z"/>
<path d="M4660 1520 c-18 -12 -2 -12 25 0 13 6 15 9 5 9 -8 0 -22 -4 -30 -9z"/>
<path d="M5460 1520 c-11 -8 -8 -9 13 -4 23 5 26 4 21 -12 -6 -15 -4 -16 6 -7
25 23 -9 43 -40 23z"/>
<path d="M5660 1526 c0 -2 7 -6 15 -10 8 -3 15 -1 15 4 0 6 -7 10 -15 10 -8 0
-15 -2 -15 -4z"/>
<path d="M5930 1519 c0 -5 5 -7 10 -4 6 3 10 8 10 11 0 2 -4 4 -10 4 -5 0 -10
-5 -10 -11z"/>
<path d="M3305 1507 c-14 -11 -15 -16 -5 -22 9 -5 11 -4 6 3 -10 16 6 15 24 0
12 -11 12 -10 2 4 -10 13 -10 17 0 21 7 3 8 6 2 6 -5 1 -18 -5 -29 -12z"/>
<path d="M3418 1514 c-4 -3 -14 -7 -24 -8 -10 -2 -19 -8 -20 -15 -1 -6 0 -7 3
-1 2 5 8 8 12 5 5 -2 17 2 27 10 10 8 16 15 13 15 -3 0 -8 -3 -11 -6z"/>
<path d="M3738 1514 c-4 -3 -14 -7 -24 -8 -10 -2 -19 -8 -20 -15 -1 -6 0 -7 3
-1 2 5 8 8 12 5 5 -2 17 2 27 10 10 8 16 15 13 15 -3 0 -8 -3 -11 -6z"/>
<path d="M4184 1506 c10 -9 22 -13 27 -11 4 3 10 0 12 -5 4 -7 5 -6 4 1 -2 6
-7 11 -12 11 -6 0 -19 4 -30 10 -19 9 -19 9 -1 -6z"/>
<path d="M4316 1505 c-9 -26 -7 -32 5 -12 6 10 9 21 6 23 -2 3 -7 -2 -11 -11z"/>
<path d="M4538 1514 c-4 -3 -14 -7 -24 -8 -10 -2 -19 -8 -20 -15 -1 -6 0 -7 3
-1 2 5 8 8 12 5 5 -2 17 2 27 10 10 8 16 15 13 15 -3 0 -8 -3 -11 -6z"/>
<path d="M5596 1505 c-9 -26 -7 -32 5 -12 6 10 9 21 6 23 -2 3 -7 -2 -11 -11z"/>
<path d="M5756 1507 c3 -10 9 -15 12 -12 3 3 0 11 -7 18 -10 9 -11 8 -5 -6z"/>
<path d="M3570 1506 c0 -2 7 -9 15 -16 13 -11 14 -10 9 4 -5 14 -24 23 -24 12z"/>
<path d="M3615 1501 c-3 -5 0 -13 6 -17 7 -4 9 -3 5 4 -4 7 2 10 14 9 13 -1
19 -6 15 -15 -3 -7 0 -10 6 -7 5 4 8 12 6 18 -4 13 -44 20 -52 8z"/>
<path d="M3930 1501 c0 -5 5 -13 10 -16 6 -3 10 -2 10 4 0 5 -4 13 -10 16 -5
3 -10 2 -10 -4z"/>
<path d="M4090 1501 c0 -5 5 -13 10 -16 6 -3 10 -2 10 4 0 5 -4 13 -10 16 -5
3 -10 2 -10 -4z"/>
<path d="M4154 1502 c3 -5 0 -13 -6 -15 -8 -3 -6 -6 5 -6 19 -1 23 14 5 25 -6
4 -8 3 -4 -4z"/>
<path d="M4415 1501 c-3 -5 0 -13 6 -17 8 -5 9 -3 5 5 -10 15 25 11 37 -4 5
-6 7 -4 5 4 -5 16 -44 25 -53 12z"/>
<path d="M4690 1501 c0 -9 30 -24 36 -18 2 1 -6 8 -16 15 -11 7 -20 8 -20 3z"/>
<path d="M4890 1501 c0 -5 5 -13 10 -16 6 -3 10 -2 10 4 0 5 -4 13 -10 16 -5
3 -10 2 -10 -4z"/>
<path d="M5050 1501 c0 -5 5 -13 10 -16 6 -3 10 -2 10 4 0 5 -4 13 -10 16 -5
3 -10 2 -10 -4z"/>
<path d="M5210 1501 c0 -5 5 -13 10 -16 6 -3 10 -2 10 4 0 5 -4 13 -10 16 -5
3 -10 2 -10 -4z"/>
<path d="M5370 1501 c0 -5 5 -13 10 -16 6 -3 10 -2 10 4 0 5 -4 13 -10 16 -5
3 -10 2 -10 -4z"/>
<path d="M5434 1502 c3 -5 0 -13 -6 -15 -8 -3 -6 -6 5 -6 19 -1 23 14 5 25 -6
4 -8 3 -4 -4z"/>
<path d="M5695 1501 c-3 -5 0 -13 6 -17 8 -5 9 -3 5 5 -10 15 25 11 37 -4 5
-6 7 -4 5 4 -5 16 -44 25 -53 12z"/>
<path d="M5815 1501 c-3 -5 0 -13 6 -17 8 -5 9 -3 4 6 -6 9 -1 10 16 5 19 -5
21 -4 9 4 -19 13 -27 14 -35 2z"/>
<path d="M3430 1490 c0 -5 5 -10 11 -10 5 0 7 5 4 10 -3 6 -8 10 -11 10 -2 0
-4 -4 -4 -10z"/>
<path d="M3750 1490 c0 -5 5 -10 11 -10 5 0 7 5 4 10 -3 6 -8 10 -11 10 -2 0
-4 -4 -4 -10z"/>
<path d="M4550 1490 c0 -5 5 -10 11 -10 5 0 7 5 4 10 -3 6 -8 10 -11 10 -2 0
-4 -4 -4 -10z"/>
<path d="M4635 1490 c-3 -5 -1 -10 4 -10 6 0 11 5 11 10 0 6 -2 10 -4 10 -3 0
-8 -4 -11 -10z"/>
<path d="M4790 1489 c0 -5 5 -7 10 -4 6 3 10 8 10 11 0 2 -4 4 -10 4 -5 0 -10
-5 -10 -11z"/>
<path d="M3150 1486 c0 -2 7 -7 16 -10 8 -3 12 -2 9 4 -6 10 -25 14 -25 6z"/>
<path d="M3200 1480 c-8 -5 -12 -11 -10 -14 3 -2 14 2 24 10 22 15 10 19 -14
4z"/>
<path d="M3219 1463 c-1 -4 -1 -11 0 -15 0 -5 -3 -8 -7 -8 -5 0 -17 -7 -28
-16 -16 -13 -16 -15 -2 -10 11 3 21 -2 27 -13 8 -15 5 -20 -15 -30 -14 -6 -22
-16 -19 -21 3 -6 -4 -10 -16 -10 -21 0 -21 1 -6 18 10 10 17 23 17 28 0 5 -5
1 -11 -8 -5 -9 -16 -15 -24 -12 -8 4 -12 10 -9 15 3 5 -3 6 -13 2 -17 -6 -17
-5 1 15 11 12 17 24 15 26 -2 2 -12 -7 -22 -20 -17 -23 -17 -24 7 -36 14 -7
25 -17 25 -23 1 -5 10 -10 21 -10 11 0 20 5 21 10 0 6 11 16 25 23 24 13 25
15 10 37 -14 21 -14 24 0 29 8 3 12 10 9 16 -3 5 3 10 15 10 12 0 19 -4 15 -9
-9 -15 15 -25 28 -12 9 9 8 11 -6 5 -12 -4 -17 -2 -15 7 2 8 -7 15 -19 17 -13
2 -24 0 -24 -5z"/>
<path d="M3148 1433 c7 -3 16 -2 19 1 4 3 -2 6 -13 5 -11 0 -14 -3 -6 -6z"/>
<path d="M3230 1420 c0 -6 5 -8 12 -4 8 5 9 2 5 -9 -3 -10 -2 -17 4 -17 6 0 7
-5 3 -12 -4 -7 -3 -8 4 -4 7 4 8 15 3 28 -9 24 -31 37 -31 18z"/>
<path d="M3140 1395 c0 -8 2 -15 4 -15 2 0 6 7 10 15 3 8 1 15 -4 15 -6 0 -10
-7 -10 -15z"/>
<path d="M3070 1360 c-13 -8 -12 -10 3 -10 9 0 17 5 17 10 0 12 -1 12 -20 0z"/>
<path d="M3230 1360 c0 -6 7 -10 15 -10 8 0 15 2 15 4 0 2 -7 6 -15 10 -8 3
-15 1 -15 -4z"/>
<path d="M3096 1342 c-2 -4 0 -14 6 -22 8 -12 9 -12 5 2 -3 9 -1 19 6 22 9 3
9 5 0 5 -6 1 -14 -3 -17 -7z"/>
<path d="M3210 1343 c5 -2 8 -8 6 -12 -3 -4 0 -13 5 -21 7 -11 8 -9 6 9 -2 14
-9 26 -16 27 -6 1 -7 0 -1 -3z"/>
<path d="M3070 1323 c14 -7 12 -23 -2 -20 -8 1 -13 -8 -13 -23 0 -15 5 -24 13
-22 6 1 12 -7 12 -19 0 -12 -4 -17 -11 -14 -6 4 -13 -2 -16 -14 -3 -12 -9 -21
-14 -21 -5 0 -9 -4 -9 -10 0 -20 20 -9 26 15 3 13 11 23 18 22 6 -1 11 9 11
23 0 15 -5 24 -12 23 -7 -2 -13 6 -13 17 0 11 6 19 13 18 6 -2 12 3 12 11 0 8
-6 15 -13 17 -7 1 -8 0 -2 -3z"/>
<path d="M3127 1319 c7 -7 15 -10 18 -7 3 3 -2 9 -12 12 -14 6 -15 5 -6 -5z"/>
<path d="M3035 1309 c-4 -6 -5 -12 -2 -15 2 -3 7 2 10 11 7 17 1 20 -8 4z"/>
<path d="M3175 1301 c-3 -5 2 -17 11 -25 17 -17 28 -21 20 -7 -4 5 -3 11 1 14
5 2 3 2 -4 1 -20 -5 -25 14 -6 19 16 4 16 5 1 6 -9 0 -19 -3 -23 -8z"/>
<path d="M2997 1289 c7 -7 15 -10 18 -7 3 3 -2 9 -12 12 -14 6 -15 5 -6 -5z"/>
<path d="M3100 1290 c-13 -8 -12 -11 5 -24 11 -8 23 -12 26 -10 4 2 9 -3 13
-11 3 -8 10 -15 16 -15 6 0 4 8 -6 18 -10 9 -22 17 -27 17 -6 0 -12 6 -15 14
-3 8 0 11 7 7 6 -4 11 -2 11 3 0 13 -10 14 -30 1z"/>
<path d="M3151 1290 c0 -8 4 -22 9 -30 12 -18 12 -2 0 25 -6 13 -9 15 -9 5z"/>
<path d="M2976 1262 c-2 -4 2 -16 10 -27 8 -10 14 -14 14 -9 0 6 -5 15 -11 21
-9 9 -7 12 9 10 12 0 24 -7 26 -14 6 -16 26 -17 26 -2 0 5 -4 8 -9 5 -5 -4
-11 -1 -13 6 -5 13 -45 21 -52 10z"/>
<path d="M3110 1232 c6 -12 15 -20 20 -17 4 3 11 0 13 -5 4 -7 5 -6 4 1 -2 6
-6 9 -9 7 -4 -2 -14 6 -23 17 -16 19 -16 19 -5 -3z"/>
<path d="M3010 1221 c0 -5 7 -12 16 -15 14 -5 15 -4 4 9 -14 17 -20 19 -20 6z"/>
<path d="M2980 1200 c8 -5 22 -9 30 -9 10 0 8 3 -5 9 -27 12 -43 12 -25 0z"/>
<path d="M3079 1193 c-13 -17 -13 -17 6 -3 11 8 22 16 24 17 2 2 0 3 -6 3 -6
0 -17 -8 -24 -17z"/>
<path d="M3111 1191 c-8 -5 -15 -19 -16 -30 -1 -11 2 -18 7 -15 5 4 7 12 4 20
-3 8 1 14 9 14 8 0 15 5 15 10 0 12 -1 12 -19 1z"/>
<path d="M2950 1179 c-12 -8 -11 -9 5 -5 16 5 21 1 21 -14 0 -11 -6 -20 -13
-20 -7 0 -13 -4 -13 -10 0 -14 2 -13 40 15 19 14 29 25 24 25 -6 0 -16 -6 -23
-12 -10 -11 -12 -9 -9 6 4 23 -11 30 -32 15z"/>
<path d="M2910 1162 c0 -4 10 -9 22 -9 18 -2 20 0 8 7 -18 12 -30 13 -30 2z"/>
<path d="M3060 1160 c0 -5 5 -10 10 -10 6 0 10 5 10 10 0 6 -4 10 -10 10 -5 0
-10 -4 -10 -10z"/>
<path d="M3036 1147 c3 -10 9 -15 12 -12 3 3 0 11 -7 18 -10 9 -11 8 -5 -6z"/>
<path d="M2849 1128 c-6 -11 -8 -22 -5 -26 3 -3 6 1 6 8 0 11 3 11 12 2 7 -7
17 -12 23 -12 5 0 2 5 -7 11 -24 13 -23 24 2 26 11 1 18 -2 16 -6 -3 -4 0 -13
5 -21 7 -11 8 -8 6 10 -5 31 -43 36 -58 8z"/>
<path d="M2991 1129 c-13 -10 -20 -19 -15 -19 4 0 16 7 26 17 17 15 18 15 18
-6 0 -12 -4 -20 -9 -16 -6 3 -15 -4 -21 -15 -7 -13 -7 -20 0 -20 5 0 10 7 10
15 0 8 5 14 12 13 14 -4 23 31 11 42 -4 5 -19 0 -32 -11z"/>
<path d="M2921 1124 c0 -11 3 -14 6 -6 3 7 2 16 -1 19 -3 4 -6 -2 -5 -13z"/>
<path d="M3055 1119 c-11 -16 -1 -19 13 -3 7 8 8 14 3 14 -5 0 -13 -5 -16 -11z"/>
<path d="M2927 1095 c-11 -8 -26 -11 -35 -8 -13 4 -14 3 -4 -5 8 -5 13 -13 13
-18 -1 -15 42 -10 46 6 3 9 1 11 -4 5 -4 -5 -17 -11 -28 -13 -19 -2 -20 -2 -1
12 10 9 24 17 30 19 6 2 9 7 6 10 -3 3 -13 -1 -23 -8z"/>
<path d="M2817 1078 c-7 -5 0 -6 17 -4 16 3 31 7 33 10 8 8 -37 2 -50 -6z"/>
<path d="M3019 1073 c-13 -16 -12 -17 4 -4 16 13 21 21 13 21 -2 0 -10 -8 -17
-17z"/>
<path d="M2855 1060 c-3 -5 -4 -10 0 -10 3 0 1 -10 -5 -22 -11 -22 -10 -22 4
-4 9 10 13 22 11 27 -3 4 1 10 7 12 9 4 10 6 1 6 -6 1 -15 -3 -18 -9z"/>
<path d="M2956 1053 c-6 -14 -5 -15 5 -6 7 7 10 15 7 18 -3 3 -9 -2 -12 -12z"/>
<path d="M2831 1044 c0 -11 3 -14 6 -6 3 7 2 16 -1 19 -3 4 -6 -2 -5 -13z"/>
<path d="M2740 1036 c0 -9 -3 -15 -8 -12 -4 2 -15 -2 -25 -9 -15 -11 -15 -13
-2 -18 9 -4 12 -13 9 -24 -5 -16 -4 -16 6 1 10 15 9 20 -1 27 -13 8 -5 13 14
10 10 -2 21 28 13 36 -3 4 -6 -1 -6 -11z"/>
<path d="M2876 1033 c-6 -14 -5 -15 5 -6 7 7 10 15 7 18 -3 3 -9 -2 -12 -12z"/>
<path d="M2975 1039 c-11 -16 -1 -19 13 -3 7 8 8 14 3 14 -5 0 -13 -5 -16 -11z"/>
<path d="M2904 1025 c-10 -8 -14 -14 -9 -14 6 0 19 6 29 14 11 8 15 15 10 15
-6 0 -19 -7 -30 -15z"/>
<path d="M2755 1010 c-7 -23 2 -43 16 -35 5 4 9 1 9 -5 0 -8 -10 -10 -27 -6
-23 5 -25 4 -10 -5 10 -6 25 -8 33 -5 18 7 12 32 -6 28 -9 -2 -10 5 -6 23 8
30 0 34 -9 5z"/>
<path d="M2813 1003 c2 -22 7 -28 27 -28 16 0 24 5 22 13 -2 10 4 12 20 7 20
-5 21 -4 5 5 -18 12 -41 5 -32 -10 3 -5 -4 -8 -15 -7 -14 1 -18 6 -15 18 3 10
1 20 -4 23 -6 4 -9 -5 -8 -21z"/>
<path d="M2785 1000 c3 -5 8 -10 11 -10 2 0 4 5 4 10 0 6 -5 10 -11 10 -5 0
-7 -4 -4 -10z"/>
<path d="M2926 995 c4 -8 8 -15 10 -15 2 0 4 7 4 15 0 8 -4 15 -10 15 -5 0 -7
-7 -4 -15z"/>
<path d="M2670 956 c7 -7 13 -7 20 0 6 6 3 10 -10 10 -13 0 -16 -4 -10 -10z"/>
<path d="M2870 960 c0 -5 7 -6 17 -3 12 5 14 3 8 -7 -5 -9 -4 -11 4 -6 6 4 9
12 6 17 -8 12 -35 12 -35 -1z"/>
<path d="M2828 953 c10 -4 10 -8 0 -21 -10 -14 -10 -15 2 -4 21 18 32 14 18
-7 -7 -11 -17 -19 -22 -18 -6 1 -11 -7 -12 -18 -1 -15 0 -16 3 -2 3 9 9 15 14
12 5 -4 12 1 15 9 3 9 10 14 14 11 5 -3 7 2 6 11 -3 16 -24 34 -41 33 -5 0 -4
-3 3 -6z"/>
<path d="M2790 940 c0 -5 5 -10 10 -10 6 0 10 5 10 10 0 6 -4 10 -10 10 -5 0
-10 -4 -10 -10z"/>
<path d="M2755 920 c-8 -13 4 -32 16 -25 5 4 9 1 9 -5 0 -8 -10 -10 -27 -6
-23 5 -25 4 -10 -5 22 -13 51 -4 44 14 -2 6 -10 11 -16 10 -15 -4 -14 14 2 20
9 4 9 6 0 6 -6 1 -15 -3 -18 -9z"/>
<path d="M2585 900 c-4 -6 -3 -9 2 -8 4 1 18 -3 31 -10 30 -17 28 -8 -2 12
-16 10 -27 12 -31 6z"/>
<path d="M2588 873 c10 -4 10 -8 0 -21 -10 -14 -10 -15 2 -4 21 18 32 14 18
-7 -7 -11 -15 -18 -19 -15 -15 9 -21 -18 -8 -31 12 -12 17 -11 33 1 11 8 15
14 9 14 -7 0 -15 -5 -18 -10 -7 -12 -25 -4 -25 11 0 6 4 8 9 5 5 -3 16 5 25
19 15 23 15 25 -3 35 -11 5 -23 10 -28 9 -4 0 -2 -3 5 -6z"/>
<path d="M2550 860 c0 -5 5 -10 10 -10 6 0 10 5 10 10 0 6 -4 10 -10 10 -5 0
-10 -4 -10 -10z"/>
<path d="M2709 857 c-15 -11 -14 -14 7 -30 24 -18 34 -12 30 18 -3 24 -16 28
-37 12z m28 -18 c2 -17 -1 -18 -12 -9 -8 7 -12 16 -9 21 9 16 20 10 21 -12z"/>
<path d="M2760 839 c0 -5 5 -7 10 -4 6 3 10 8 10 11 0 2 -4 4 -10 4 -5 0 -10
-5 -10 -11z"/>
<path d="M2555 829 c-4 -6 -5 -12 -2 -15 2 -3 7 2 10 11 7 17 1 20 -8 4z"/>
<path d="M2630 835 c0 -5 5 -17 10 -25 5 -8 10 -10 10 -5 0 6 -5 17 -10 25 -5
8 -10 11 -10 5z"/>
<path d="M2656 829 c3 -5 14 -9 25 -9 11 0 18 -4 14 -9 -3 -6 4 -15 15 -21 13
-7 20 -7 20 0 0 5 -7 10 -15 10 -8 0 -14 5 -12 11 1 7 -10 15 -26 20 -16 4
-25 4 -21 -2z"/>
<path d="M2518 803 c7 -3 16 -2 19 1 4 3 -2 6 -13 5 -11 0 -14 -3 -6 -6z"/>
<path d="M2671 793 c7 -12 15 -20 18 -17 3 2 -3 12 -13 22 -17 16 -18 16 -5
-5z"/>
<path d="M2556 787 c3 -10 9 -15 12 -12 3 3 0 11 -7 18 -10 9 -11 8 -5 -6z"/>
<path d="M2499 787 c-8 -24 -2 -50 13 -58 11 -6 22 -8 26 -5 3 3 -1 6 -8 6 -9
0 -8 6 5 20 10 11 15 23 11 27 -6 7 -45 15 -47 10z m41 -17 c0 -8 -22 -30 -30
-30 -3 0 -6 9 -6 19 0 13 7 19 18 18 10 -1 18 -4 18 -7z"/>
<path d="M2619 785 c-8 -35 -1 -50 21 -50 34 0 36 46 3 51 -13 2 -23 2 -24 -1z
m41 -25 c0 -9 -8 -16 -18 -17 -11 -1 -18 5 -18 17 0 12 7 18 18 17 10 -1 18
-8 18 -17z"/>
<path d="M2460 760 c0 -5 5 -10 10 -10 6 0 10 5 10 10 0 6 -4 10 -10 10 -5 0
-10 -4 -10 -10z"/>
<path d="M2580 760 c0 -5 5 -10 10 -10 6 0 10 5 10 10 0 6 -4 10 -10 10 -5 0
-10 -4 -10 -10z"/>
<path d="M2550 740 c0 -6 4 -9 9 -5 5 3 11 -5 13 -17 2 -13 8 -22 13 -20 6 2
13 -7 17 -20 7 -22 7 -22 5 2 -1 14 -6 24 -12 22 -5 -2 -12 7 -15 19 -6 24
-30 39 -30 19z"/>
<path d="M2602 724 c10 -10 20 -16 22 -13 3 3 -5 11 -17 18 -21 13 -21 12 -5
-5z"/>
<path d="M2455 720 c-3 -5 -3 -10 2 -10 4 0 -10 -9 -32 -19 -30 -14 -44 -16
-55 -7 -13 9 -13 9 -2 -6 12 -15 11 -17 -7 -15 -15 1 -20 6 -16 17 5 11 3 12
-6 3 -15 -15 -5 -31 18 -28 35 3 114 46 107 57 -5 7 -1 9 9 5 10 -3 17 -2 17
3 0 13 -27 13 -35 0z"/>
<path d="M2636 705 c-9 -26 -7 -32 5 -12 6 10 9 21 6 23 -2 3 -7 -2 -11 -11z"/>
<path d="M2496 702 c-3 -4 0 -14 6 -22 8 -12 9 -12 5 2 -4 12 0 16 14 15 11
-1 19 -9 19 -20 0 -10 -4 -16 -9 -13 -4 3 -17 -1 -27 -10 -18 -15 -18 -15 1
-6 11 6 25 10 30 11 6 1 10 11 10 23 0 14 -7 22 -22 24 -12 2 -24 0 -27 -4z"/>
<path d="M2470 681 c0 -5 5 -13 10 -16 6 -3 10 -2 10 4 0 5 -4 13 -10 16 -5 3
-10 2 -10 -4z"/>
<path d="M2419 663 c-1 -5 -1 -12 0 -17 1 -5 -5 -6 -14 -3 -8 4 -15 2 -15 -4
0 -6 8 -9 18 -7 9 2 16 10 15 16 -2 7 7 12 19 12 20 0 20 -1 5 -18 -10 -10
-17 -23 -17 -28 0 -4 7 2 16 14 9 13 20 19 27 15 7 -4 6 0 -2 10 -13 17 -50
24 -52 10z"/>
<path d="M2574 659 c-3 -6 -2 -15 3 -20 5 -5 9 -1 10 11 2 22 -2 25 -13 9z"/>
<path d="M1950 651 c0 -6 4 -13 10 -16 6 -3 7 1 4 9 -7 18 -14 21 -14 7z"/>
<path d="M2262 653 c-10 -4 -8 -9 7 -19 11 -8 18 -21 15 -29 -4 -8 -1 -15 5
-15 6 0 10 3 9 8 0 4 2 15 6 24 4 10 6 23 3 30 -3 7 -6 2 -6 -11 -1 -20 -3
-22 -16 -11 -13 11 -13 15 -3 21 14 9 1 11 -20 2z"/>
<path d="M2010 640 c0 -5 5 -10 11 -10 5 0 7 5 4 10 -3 6 -8 10 -11 10 -2 0
-4 -4 -4 -10z"/>
<path d="M2095 628 c1 -7 8 -12 14 -10 12 2 15 -14 4 -21 -5 -2 -3 -2 4 -1 22
5 24 -14 2 -21 -11 -4 -18 -9 -16 -12 3 -2 15 0 26 7 20 10 20 12 5 35 -9 14
-20 23 -24 20 -5 -3 -11 0 -13 5 -3 6 -4 5 -2 -2z"/>
<path d="M2353 633 c9 -2 17 -9 17 -14 0 -5 5 -9 11 -9 8 0 8 5 -1 15 -7 8
-20 14 -29 14 -13 -1 -13 -2 2 -6z"/>
<path d="M2518 633 c7 -3 16 -2 19 1 4 3 -2 6 -13 5 -11 0 -14 -3 -6 -6z"/>
<path d="M2213 614 c-9 -23 4 -41 28 -40 18 1 23 7 23 26 0 19 -5 25 -23 26
-12 1 -25 -5 -28 -12z m43 -14 c0 -12 -7 -18 -18 -17 -10 1 -18 8 -18 17 0 9
8 16 18 17 11 1 18 -5 18 -17z"/>
<path d="M2319 620 c-1 -5 -2 -13 -4 -17 -14 -51 -18 -62 -27 -60 -6 1 -12 -4
-13 -11 -2 -7 -1 -8 2 -2 2 5 9 8 14 4 5 -3 14 7 20 23 14 35 21 73 14 73 -3
0 -6 -4 -6 -10z"/>
<path d="M2453 614 c-3 -7 -3 -19 0 -26 3 -7 6 -4 6 7 1 27 37 31 37 4 0 -12
-5 -18 -14 -14 -7 2 -10 0 -7 -5 3 -6 1 -10 -6 -10 -7 0 -10 -3 -7 -6 4 -3 15
-1 26 5 27 14 22 56 -7 57 -13 1 -25 -5 -28 -12z"/>
<path d="M2550 619 c0 -5 5 -7 10 -4 6 3 10 8 10 11 0 2 -4 4 -10 4 -5 0 -10
-5 -10 -11z"/>
<path d="M2070 603 c0 -5 5 -15 10 -23 7 -12 9 -10 7 8 -1 19 -17 33 -17 15z"/>
<path d="M2350 603 c5 -2 10 -9 10 -14 0 -6 -4 -7 -10 -4 -5 3 -16 -11 -25
-31 -21 -50 -18 -58 4 -11 10 21 22 38 27 38 14 -1 11 22 -4 25 -7 1 -8 0 -2
-3z"/>
<path d="M2394 599 c-3 -6 -1 -16 5 -22 6 -6 11 -7 11 -1 0 5 5 2 11 -6 9 -13
10 -13 6 0 -2 8 -10 14 -16 13 -15 -4 -14 14 2 20 9 4 9 6 0 6 -6 1 -15 -4
-19 -10z"/>
<path d="M2520 599 c0 -5 5 -7 10 -4 6 3 10 8 10 11 0 2 -4 4 -10 4 -5 0 -10
-5 -10 -11z"/>
<path d="M2044 579 c-4 -7 -3 -9 4 -5 5 3 13 0 15 -6 4 -9 6 -10 6 -1 1 17
-16 25 -25 12z"/>
<path d="M2190 583 c0 -6 8 -17 18 -24 16 -13 16 -13 2 6 -8 11 -16 22 -17 24
-2 2 -3 0 -3 -6z"/>
<path d="M2266 565 c-11 -8 -15 -15 -9 -15 6 0 16 7 23 15 16 19 11 19 -14 0z"/>
<path d="M2150 561 c0 -6 7 -7 17 -4 10 4 14 2 10 -5 -4 -6 6 -17 23 -25 16
-9 30 -11 30 -6 0 5 -11 11 -25 15 -13 3 -23 11 -22 17 1 6 -6 13 -15 15 -10
2 -18 -1 -18 -7z"/>
<path d="M2359 553 c-13 -17 -13 -17 6 -3 11 8 22 16 24 17 2 2 0 3 -6 3 -6 0
-17 -8 -24 -17z"/>
<path d="M2441 554 c0 -11 3 -14 6 -6 3 7 2 16 -1 19 -3 4 -6 -2 -5 -13z"/>
<path d="M2230 553 c0 -6 9 -21 21 -34 l20 -24 -17 30 c-24 39 -24 40 -24 28z"/>
<path d="M2385 547 c-14 -11 -15 -16 -5 -22 9 -5 11 -4 6 3 -4 7 -1 12 8 12 9
0 16 5 16 10 0 13 -3 13 -25 -3z"/>
<path d="M2106 541 c8 -8 43 -8 38 0 -2 4 -13 7 -24 6 -10 -1 -17 -3 -14 -6z"/>
<path d="M2340 519 c0 -5 5 -7 10 -4 6 3 10 8 10 11 0 2 -4 4 -10 4 -5 0 -10
-5 -10 -11z"/>
</g>
</svg>
